<svg version="1.1" id="Layer_1" xmlns="http://www.w3.org/2000/svg" xmlns:xlink="http://www.w3.org/1999/xlink" x="0px" y="0px"
	 width="100%" viewBox="0 0 464 464" enable-background="new 0 0 464 464" xml:space="preserve">
<path fill="#000000" opacity="1.000000" stroke="none" 
	d="
M326.000000,465.000000 
	C217.333328,465.000000 109.166664,465.000000 1.000000,465.000000 
	C1.000000,310.333344 1.000000,155.666672 1.000000,1.000000 
	C155.666672,1.000000 310.333344,1.000000 465.000000,1.000000 
	C465.000000,155.666672 465.000000,310.333344 465.000000,465.000000 
	C418.833344,465.000000 372.666656,465.000000 326.000000,465.000000 
M237.959259,157.392044 
	C237.647964,157.298187 237.336655,157.204346 236.594696,156.968307 
	C236.594696,156.968307 236.143661,156.920883 235.961853,156.411957 
	C235.668930,156.211670 235.376007,156.011383 235.070282,155.895065 
	C235.070282,155.895065 235.154785,155.886459 234.847290,155.247086 
	C233.570190,154.871490 232.293091,154.495880 230.583832,153.971252 
	C230.583832,153.971252 230.129364,153.921921 229.809326,153.271774 
	C228.244186,152.809738 226.679047,152.347687 224.658432,151.131927 
	C219.430847,151.145416 214.203262,151.158890 208.102280,151.019501 
	C202.164078,150.861969 196.465927,151.504395 191.240250,155.962524 
	C190.460144,156.606400 189.680038,157.250275 188.196915,157.959351 
	C185.673264,160.242859 182.747086,162.223770 180.739151,164.894943 
	C178.730515,167.567078 177.639847,170.929260 176.044495,174.478363 
	C176.044495,174.478363 176.146164,174.967911 175.959671,175.358627 
	C175.838394,175.620026 175.716278,175.881042 175.254333,176.294769 
	C175.254333,176.294769 175.122070,176.642456 174.518768,176.998260 
	C173.638702,180.641861 172.758636,184.285446 171.161911,188.306015 
	C171.779724,193.201004 169.873260,196.127960 165.110550,198.084595 
	C160.309921,200.056793 157.911346,205.230682 158.286255,209.229126 
	C158.129349,210.117828 157.972443,211.006546 157.111221,212.323944 
	C157.102005,214.540405 157.092789,216.756851 156.931946,219.358948 
	C156.931946,219.358948 156.933243,219.773331 156.189682,220.226303 
	C156.097275,222.522842 156.102142,224.828186 155.895630,227.114410 
	C154.995941,237.073532 154.034744,247.027084 152.961914,257.679565 
	C152.952728,258.389099 152.943542,259.098602 152.406067,260.012146 
	C152.294342,260.338715 152.182632,260.665314 151.929596,261.738464 
	C151.976715,262.493835 152.023834,263.249176 151.952652,264.745361 
	C151.999573,265.491852 152.046494,266.238342 151.950592,267.762177 
	C151.907028,268.812714 151.863464,269.863251 151.132034,271.291901 
	C151.120361,272.855927 151.108688,274.419952 150.949463,276.859161 
	C150.353806,283.237488 149.758133,289.615845 149.016830,296.886353 
	C148.339523,308.701996 147.412445,320.510742 147.086258,332.336090 
	C146.913269,338.607361 150.134079,343.385498 156.197098,346.799408 
	C164.314850,353.743774 173.914703,357.751831 184.677765,361.166351 
	C195.453812,363.719971 206.229843,366.273590 217.807297,368.977692 
	C219.869751,369.263367 221.932205,369.549042 224.788544,369.983551 
	C225.860703,369.933350 226.932877,369.883179 228.921738,369.975250 
	C232.952087,369.928223 236.982422,369.881165 241.769882,369.724152 
	C244.848175,368.779846 247.926468,367.835541 251.712387,366.857788 
	C254.687256,364.237793 258.775452,362.174377 260.418243,358.888397 
	C264.554382,350.615112 267.587402,341.790314 271.592468,332.988129 
	C271.699829,332.662323 271.807190,332.336548 272.045288,331.321625 
	C272.381134,330.266998 272.716980,329.212341 273.745514,327.845886 
	C274.527618,325.747192 275.264404,323.630280 276.099701,321.552948 
	C279.659973,312.698578 283.249420,303.855865 286.994141,294.270630 
	C289.604767,288.182098 292.215393,282.093536 295.152039,275.329163 
	C297.781860,268.596161 300.411682,261.863190 303.571289,254.972870 
	C303.679504,254.656372 303.787720,254.339874 304.042877,253.621567 
	C304.042877,253.621567 304.065826,253.194351 304.675995,252.920471 
	C304.747955,252.288544 304.819916,251.656631 305.039093,250.620605 
	C305.039093,250.620605 305.064484,250.191269 305.766754,249.826523 
	C309.346832,241.094711 306.413483,230.276596 298.579010,225.202896 
	C291.493164,220.613998 284.308990,216.038116 276.705536,212.431976 
	C270.804657,209.633301 264.190674,208.338135 257.845398,206.520569 
	C257.845398,206.520569 257.648651,206.769257 257.386414,205.975616 
	C256.871552,202.953064 256.356689,199.930527 256.259186,196.238632 
	C255.368301,190.896500 254.479462,185.554016 253.569748,180.215088 
	C253.553757,180.121277 253.286789,180.070236 253.003159,179.233215 
	C252.813995,178.460449 252.837814,177.530746 252.402191,176.939590 
	C248.671539,171.876755 244.857712,166.875198 240.994949,161.384979 
	C240.994949,161.384979 240.835312,160.936401 240.990494,160.312805 
	C240.664612,159.912582 240.338730,159.512360 239.586334,158.964737 
	C239.586334,158.964737 239.138306,158.910553 238.954819,158.410263 
	C238.662125,158.220505 238.369431,158.030746 238.058289,157.923904 
	C238.058289,157.923904 238.139709,157.899704 237.959259,157.392044 
M323.645569,194.799088 
	C323.821869,194.211105 323.998169,193.623123 324.742065,192.673874 
	C327.529449,188.486740 330.316833,184.299591 333.680115,179.733475 
	C334.493866,177.852173 335.307648,175.970871 336.646423,173.774414 
	C336.707184,173.190964 336.767944,172.607498 336.976471,171.237869 
	C337.281219,170.163116 338.016174,169.002914 337.822388,168.027145 
	C336.313110,160.426498 334.546478,152.877228 333.012726,145.281113 
	C331.218658,136.395569 325.299896,132.159378 316.859802,131.050064 
	C309.753479,130.116043 302.596954,129.411102 295.440430,129.069611 
	C291.192322,128.866898 286.498901,127.841492 282.524200,132.048889 
	C280.000061,136.027512 277.475891,140.006134 274.359833,144.337708 
	C273.556366,145.771622 272.754364,147.206375 271.949097,148.639267 
	C269.066559,153.768402 265.882660,158.567307 267.890930,165.191116 
	C269.739594,171.288452 270.167938,177.801468 271.669495,184.023361 
	C273.057373,189.774109 275.330811,195.782501 281.874878,196.870773 
	C291.474457,198.467163 301.267303,198.901642 311.763367,199.961029 
	C313.515503,199.586838 315.267670,199.212631 317.585693,198.928360 
	C318.078583,198.700211 318.571442,198.472046 319.805603,198.159836 
	C320.228912,197.461060 320.652222,196.762299 321.025574,196.000900 
	C321.025574,196.000900 321.039276,196.079834 321.640320,196.403137 
	C322.104584,195.956543 322.568848,195.509949 323.027374,195.027481 
	C323.027374,195.027481 323.063293,195.032928 323.645569,194.799088 
M190.342392,129.703644 
	C199.096817,133.586502 206.726913,131.292740 213.153854,122.344261 
	C214.068420,121.034302 214.982986,119.724350 216.671310,117.907104 
	C216.772156,115.783714 216.947830,113.660820 216.961685,111.536865 
	C217.051849,97.712219 204.413559,91.038055 191.346420,94.910484 
	C191.346420,94.910484 191.098099,95.067184 190.483963,95.036568 
	C190.224625,95.346817 189.965302,95.657074 189.373459,95.897179 
	C189.373459,95.897179 189.072266,96.054550 188.506561,96.007156 
	C188.299820,96.304939 188.093094,96.602715 187.278656,97.153008 
	C186.801987,98.086014 186.325302,99.019020 185.225983,100.258621 
	C183.871307,103.172951 182.516647,106.087288 180.756485,109.705368 
	C178.176804,115.865280 182.961441,126.780357 190.342392,129.703644 
z"/>
<path fill="#E4B751" opacity="1.000000" stroke="none" 
	d="
M253.136932,179.999237 
	C253.286789,180.070236 253.553757,180.121277 253.569748,180.215088 
	C254.479462,185.554016 255.368301,190.896500 255.819824,196.886398 
	C255.189011,200.722000 254.997528,203.909851 254.642670,207.374176 
	C253.605530,209.399658 252.731781,211.148666 251.635849,213.088806 
	C251.203629,213.819077 250.993607,214.358200 250.545441,215.130630 
	C249.135056,217.192383 247.962799,219.020828 246.467987,220.907196 
	C244.766891,221.983994 243.388382,223.002899 241.781479,224.112747 
	C241.267059,224.396210 241.082458,224.659760 240.999344,224.996887 
	C240.999390,224.999390 240.993454,224.997849 240.629089,225.029694 
	C238.763702,225.723221 237.291626,226.462692 235.756866,227.033783 
	C226.773911,230.376373 217.666290,232.544434 208.315338,229.552460 
	C209.425262,228.960526 210.299316,228.544846 211.594055,228.107697 
	C214.306625,228.080536 216.598511,228.074860 219.176086,228.303650 
	C222.716888,227.503632 227.300262,230.104980 229.365326,225.161102 
	C231.777206,223.869247 233.901291,222.441513 236.422485,221.014893 
	C245.234894,220.368805 249.800156,211.268021 245.297424,202.511993 
	C243.981979,204.461349 242.907059,206.054291 241.803574,207.689514 
	C236.114731,206.240891 229.933640,205.727310 224.786057,203.149765 
	C211.387711,196.440857 198.502609,188.714096 185.268494,181.664200 
	C182.501617,180.190247 179.114487,179.880569 175.936844,178.609985 
	C175.614365,177.671219 175.368210,177.156830 175.122070,176.642456 
	C175.122070,176.642456 175.254333,176.294769 175.636475,176.335419 
	C176.061142,175.906693 176.103653,175.437302 176.146164,174.967911 
	C176.146164,174.967911 176.044495,174.478363 176.367340,174.108032 
	C177.694855,172.769699 178.699524,171.801682 180.080551,170.850342 
	C183.838943,169.217010 185.903305,165.726944 190.994797,170.353958 
	C197.698364,176.446045 206.463013,180.412094 214.662994,184.673630 
	C222.100204,188.538773 230.073318,191.444717 238.355057,186.946335 
	C240.979431,185.520859 243.060165,183.094452 245.562408,180.980164 
	C246.680832,181.943634 247.759171,182.872574 249.359650,184.251328 
	C250.381744,182.672592 251.212418,181.389542 252.316162,180.075500 
	C252.771805,180.029434 252.954376,180.014328 253.136932,179.999237 
z"/>
<path fill="#C1BBB8" opacity="1.000000" stroke="none" 
	d="
M228.005035,369.833008 
	C226.932877,369.883179 225.860703,369.933350 224.368011,369.530823 
	C221.754028,365.663147 219.423904,366.029236 217.005890,368.827209 
	C206.229843,366.273590 195.453812,363.719971 184.318695,360.644562 
	C181.338791,358.151031 178.896042,355.860168 176.058594,354.276550 
	C170.801437,351.342499 164.852997,349.645813 161.807465,343.532013 
	C160.686737,341.282288 157.984909,339.820160 155.876404,337.706360 
	C155.502747,336.609314 155.256958,335.804688 155.241547,334.729004 
	C155.312881,332.333130 155.038116,330.209656 155.013748,328.083313 
	C154.864655,315.081116 160.080444,303.786743 167.308685,293.568085 
	C170.265076,289.388611 173.651260,284.347107 180.347961,283.937286 
	C182.805420,283.270996 184.898697,282.646240 186.982010,282.375122 
	C184.976288,284.816864 182.980515,286.904938 180.639526,289.041016 
	C173.663849,293.038849 172.163803,300.161957 171.756958,306.566376 
	C171.378479,312.524475 171.847687,319.548523 179.824417,322.484650 
	C183.385757,323.795502 186.166428,327.137695 189.451126,329.334076 
	C190.754745,330.205780 192.464432,330.470215 194.145935,331.288452 
	C195.201599,332.044281 196.100555,332.522736 197.216370,333.266357 
	C200.621750,335.355133 203.810257,337.178772 206.593658,339.002808 
	C204.746445,338.746765 203.191223,338.753967 201.880341,338.191559 
	C192.512405,334.172607 183.224182,329.966156 173.823242,326.027924 
	C172.619736,325.523712 169.729889,325.948120 169.622742,326.408356 
	C168.676285,330.473450 166.365784,335.561462 167.903900,338.607025 
	C172.102356,346.920166 179.472366,352.282074 189.320160,354.139832 
	C190.758606,354.522949 191.879623,354.762085 193.248260,355.250732 
	C195.335175,355.994415 197.174469,356.488617 199.344727,356.983795 
	C200.116974,356.986237 200.558258,356.987701 201.195068,357.220032 
	C202.260040,357.305176 203.129501,357.159546 204.331635,357.012390 
	C205.107941,357.010132 205.551544,357.009338 206.054657,357.319855 
	C207.075943,357.756470 208.037720,357.881805 209.427551,358.006653 
	C211.567215,358.009003 213.278839,358.011810 215.081421,358.372803 
	C218.242798,359.385193 221.314331,360.566986 224.383331,360.560394 
	C228.241257,360.552124 232.084457,359.414612 235.961227,359.101562 
	C237.191498,359.002228 238.508865,359.981628 239.786377,360.467377 
	C238.938446,361.667084 238.342941,363.464813 237.193420,363.949921 
	C234.212387,365.208069 230.987518,365.888428 227.527267,366.896301 
	C227.648575,367.641907 227.826813,368.737427 228.005035,369.833008 
z"/>
<path fill="#C9BFBD" opacity="1.000000" stroke="none" 
	d="
M228.463394,369.904114 
	C227.826813,368.737427 227.648575,367.641907 227.527267,366.896301 
	C230.987518,365.888428 234.212387,365.208069 237.193420,363.949921 
	C238.342941,363.464813 238.938446,361.667084 239.786377,360.467377 
	C238.508865,359.981628 237.191498,359.002228 235.961227,359.101562 
	C232.084457,359.414612 228.241257,360.552124 224.383331,360.560394 
	C221.314331,360.566986 218.242798,359.385193 215.503876,358.368164 
	C217.630814,358.285461 219.423508,358.584808 221.222260,358.841766 
	C224.981491,359.378845 230.051254,356.245087 230.448135,352.782074 
	C230.940536,348.485382 227.390747,348.347107 224.519882,347.685120 
	C221.781204,347.053589 219.035858,346.450287 216.289368,345.853302 
	C212.942688,345.125824 209.428040,344.839905 206.275604,343.616699 
	C198.918289,340.762024 191.871582,337.068878 184.436874,334.463593 
	C178.394928,332.346313 173.840530,333.878540 172.763763,337.730103 
	C171.257843,343.116730 175.599945,345.226685 179.172531,347.585388 
	C182.437042,349.740723 185.725082,351.860443 189.002762,353.995819 
	C179.472366,352.282074 172.102356,346.920166 167.903900,338.607025 
	C166.365784,335.561462 168.676285,330.473450 169.622742,326.408356 
	C169.729889,325.948120 172.619736,325.523712 173.823242,326.027924 
	C183.224182,329.966156 192.512405,334.172607 201.880341,338.191559 
	C203.191223,338.753967 204.746445,338.746765 206.886444,339.259705 
	C217.356339,340.986755 227.092560,342.901978 236.919296,343.693542 
	C240.498077,343.981812 245.609741,342.718750 247.745026,340.218658 
	C254.541092,332.261475 259.459320,323.076416 259.359436,311.927490 
	C260.456604,308.850983 261.621155,305.886658 261.884033,302.844391 
	C262.509247,295.607758 262.211090,288.642914 255.785767,283.352814 
	C253.636078,281.582916 252.571594,278.494995 251.409119,276.009064 
	C255.734558,277.608398 259.975098,278.722565 263.477661,280.981140 
	C265.759064,282.452271 268.554626,285.710449 268.380951,287.956299 
	C267.636230,297.587128 266.917328,307.444702 264.221436,316.642944 
	C260.871735,328.072021 255.549957,338.919922 251.155594,350.048676 
	C250.266708,352.299835 249.715469,354.684326 248.849014,357.303833 
	C247.426620,359.123657 245.963242,360.525391 244.948425,362.199097 
	C243.467468,364.641632 242.308807,367.279510 241.012772,369.834137 
	C236.982422,369.881165 232.952087,369.928223 228.463394,369.904114 
z"/>
<path fill="#8483D6" opacity="1.000000" stroke="none" 
	d="
M283.097748,131.862259 
	C286.498901,127.841492 291.192322,128.866898 295.440430,129.069611 
	C302.596954,129.411102 309.753479,130.116043 316.859802,131.050064 
	C325.299896,132.159378 331.218658,136.395569 333.012726,145.281113 
	C334.546478,152.877228 336.313110,160.426498 337.822388,168.027145 
	C338.016174,169.002914 337.281219,170.163116 336.698914,171.514832 
	C336.165222,171.588654 336.006622,171.326523 335.927277,170.647476 
	C334.141022,164.540878 329.219574,160.478180 324.340271,161.420929 
	C316.493835,162.936951 310.531464,158.657578 303.718323,157.358292 
	C301.476166,156.930710 299.357941,153.267365 298.160004,150.638458 
	C296.819031,147.695511 297.205292,143.924316 295.727478,141.094467 
	C293.487244,136.804596 291.729309,131.318649 284.587402,131.854050 
	C283.759827,131.859329 283.428772,131.860794 283.097748,131.862259 
z"/>
<path fill="#2D2D7D" opacity="1.000000" stroke="none" 
	d="
M333.104218,180.112457 
	C330.316833,184.299591 327.529449,188.486740 324.173401,192.989685 
	C323.424286,193.881302 323.243805,194.457108 323.063293,195.032928 
	C323.063293,195.032928 323.027374,195.027481 322.725769,195.034180 
	C321.962555,195.387192 321.500916,195.733521 321.039276,196.079834 
	C321.039276,196.079834 321.025574,196.000900 320.709595,196.075775 
	C319.950500,196.848404 319.507416,197.546127 319.064331,198.243866 
	C318.571442,198.472046 318.078583,198.700211 317.242615,198.543915 
	C315.978485,197.261887 315.202240,195.872482 314.111542,195.551468 
	C309.280548,194.129654 304.871002,193.476608 300.939514,188.725327 
	C297.656464,184.757706 290.495972,184.028427 285.104858,181.741867 
	C284.327820,181.412308 283.174591,180.140045 283.328674,179.730911 
	C284.711914,176.058853 285.812469,172.056519 288.171936,169.084808 
	C289.131714,167.875961 293.057678,168.609070 295.515320,169.079147 
	C303.233582,170.555420 310.829071,172.965530 318.601013,173.773026 
	C324.390686,174.374573 329.261414,175.702179 333.104218,180.112457 
z"/>
<path fill="#F2D176" opacity="1.000000" stroke="none" 
	d="
M253.070038,179.616226 
	C252.954376,180.014328 252.771805,180.029434 252.014893,179.886581 
	C249.666183,177.900574 248.042160,174.747482 246.085571,174.525467 
	C242.234802,174.088531 238.024597,174.732605 234.282654,175.928970 
	C229.116226,177.580780 224.554306,176.923477 219.960999,174.499710 
	C217.083923,172.981552 214.001892,171.800003 211.284119,170.045624 
	C208.281403,168.107285 203.880600,166.144302 203.140106,163.375870 
	C201.843353,158.527802 199.393478,156.712479 195.250137,155.834686 
	C199.969406,154.275024 204.484390,153.006470 209.427155,151.804138 
	C217.791931,152.798004 225.613708,153.830841 232.460815,158.706512 
	C234.860657,160.415405 238.173050,160.842773 241.068741,161.855316 
	C244.857712,166.875198 248.671539,171.876755 252.402191,176.939590 
	C252.837814,177.530746 252.813995,178.460449 253.070038,179.616226 
z"/>
<path fill="#5A4491" opacity="1.000000" stroke="none" 
	d="
M310.977783,199.831223 
	C301.267303,198.901642 291.474457,198.467163 281.874878,196.870773 
	C275.330811,195.782501 273.057373,189.774109 271.669495,184.023361 
	C270.167938,177.801468 269.739594,171.288452 267.890930,165.191116 
	C265.882660,158.567307 269.066559,153.768402 271.949097,148.639267 
	C272.754364,147.206375 273.556366,145.771622 275.003906,144.169922 
	C277.816559,145.354996 280.915558,146.206604 281.968262,148.160629 
	C284.487152,152.836258 286.042908,158.030762 287.938049,163.366226 
	C284.685760,170.168137 281.572388,176.666245 278.241302,183.050812 
	C276.639862,186.120224 277.838806,187.837097 280.254791,189.682190 
	C285.243286,193.491882 291.221436,193.783112 296.985413,195.103897 
	C301.759918,196.197983 306.321747,198.220215 310.977783,199.831223 
z"/>
<path fill="#D6CECB" opacity="1.000000" stroke="none" 
	d="
M303.041504,255.130188 
	C300.411682,261.863190 297.781860,268.596161 294.667603,275.575500 
	C293.456512,274.649017 292.729858,273.476227 291.724182,271.853119 
	C290.093689,273.181335 288.390228,274.058868 287.442902,275.450989 
	C285.681885,278.038818 284.173248,280.842438 282.893158,283.705383 
	C279.020050,292.367493 273.063477,300.175446 271.853577,310.333710 
	C270.468597,314.444550 269.231262,318.222443 267.745789,322.187927 
	C266.665924,322.917847 265.834198,323.460144 265.001434,323.596680 
	C265.989777,320.097504 266.972046,317.001831 267.969818,313.911133 
	C271.269287,303.690826 274.298828,293.371643 277.984680,283.292542 
	C280.062683,277.610168 283.856232,272.529205 285.715637,266.800415 
	C287.447083,261.465698 288.659027,256.313385 294.357269,253.787415 
	C294.712494,253.629974 294.693604,252.628677 294.786499,252.264221 
	C291.683624,250.411118 288.839203,248.712372 286.440918,247.004883 
	C292.347931,245.732254 297.719299,250.385986 303.281860,247.355148 
	C303.342834,247.321915 304.447205,249.203537 305.064484,250.191269 
	C305.064484,250.191269 305.039093,250.620605 304.733459,251.024261 
	C304.307159,252.016739 304.186493,252.605545 304.065826,253.194351 
	C304.065826,253.194351 304.042877,253.621567 303.765869,253.951584 
	C303.279938,254.532944 303.130829,254.815796 303.041504,255.130188 
z"/>
<path fill="#DF643D" opacity="1.000000" stroke="none" 
	d="
M181.161972,109.001617 
	C182.516647,106.087288 183.871307,103.172951 185.884369,100.257339 
	C191.955490,102.646988 197.699310,104.503082 202.682510,107.587906 
	C207.152344,110.354927 212.566666,112.125717 215.560852,117.415787 
	C215.720428,117.978905 215.808990,118.196648 215.897552,118.414391 
	C214.982986,119.724350 214.068420,121.034302 212.626221,122.659058 
	C210.874054,123.370483 209.190674,123.389145 208.501007,124.226372 
	C204.633133,128.921875 199.499161,129.316193 194.049347,128.583817 
	C194.185394,127.401474 194.050003,126.201416 194.519806,125.876518 
	C199.391129,122.507805 196.284653,120.222290 193.465317,118.055550 
	C189.428864,114.953430 185.269089,112.011787 181.161972,109.001617 
z"/>
<path fill="#413A89" opacity="1.000000" stroke="none" 
	d="
M311.370575,199.896118 
	C306.321747,198.220215 301.759918,196.197983 296.985413,195.103897 
	C291.221436,193.783112 285.243286,193.491882 280.254791,189.682190 
	C277.838806,187.837097 276.639862,186.120224 278.241302,183.050812 
	C281.572388,176.666245 284.685760,170.168137 288.231934,163.242188 
	C290.697571,163.988785 292.690186,165.863388 294.965302,166.315125 
	C303.676788,168.044937 312.479065,169.317474 321.499786,170.786255 
	C322.092010,170.802872 322.431946,170.793930 323.176392,170.857788 
	C327.761108,171.983582 331.941284,173.036591 336.121429,174.089584 
	C335.307648,175.970871 334.493866,177.852173 333.392151,179.922974 
	C329.261414,175.702179 324.390686,174.374573 318.601013,173.773026 
	C310.829071,172.965530 303.233582,170.555420 295.515320,169.079147 
	C293.057678,168.609070 289.131714,167.875961 288.171936,169.084808 
	C285.812469,172.056519 284.711914,176.058853 283.328674,179.730911 
	C283.174591,180.140045 284.327820,181.412308 285.104858,181.741867 
	C290.495972,184.028427 297.656464,184.757706 300.939514,188.725327 
	C304.871002,193.476608 309.280548,194.129654 314.111542,195.551468 
	C315.202240,195.872482 315.978485,197.261887 316.959656,198.498947 
	C315.267670,199.212631 313.515503,199.586838 311.370575,199.896118 
z"/>
<path fill="#E5E0DC" opacity="1.000000" stroke="none" 
	d="
M305.415619,250.008896 
	C304.447205,249.203537 303.342834,247.321915 303.281860,247.355148 
	C297.719299,250.385986 292.347931,245.732254 286.066650,247.000870 
	C284.497528,247.003281 283.748749,247.000977 282.784729,246.754044 
	C281.334686,245.641968 280.099976,244.774521 279.132874,243.689377 
	C280.935669,242.989517 282.470825,242.507339 284.371216,242.019119 
	C287.190552,240.027786 289.644684,238.042526 292.471863,236.028976 
	C295.783752,235.671982 296.815765,233.602951 295.504211,231.455597 
	C293.809784,228.681381 291.237366,226.443436 288.867981,223.684280 
	C285.407532,221.312805 282.122040,219.231598 278.632294,217.111496 
	C278.428009,217.072586 278.025269,216.968811 277.952606,216.633606 
	C276.906433,215.876511 275.932922,215.454605 274.612701,214.960373 
	C271.900391,213.815231 269.534790,212.742432 267.053040,211.387756 
	C266.233307,210.797256 265.529694,210.488632 264.447052,210.087585 
	C262.009918,208.788330 259.951782,207.581512 257.893677,206.374695 
	C264.190674,208.338135 270.804657,209.633301 276.705536,212.431976 
	C284.308990,216.038116 291.493164,220.613998 298.579010,225.202896 
	C306.413483,230.276596 309.346832,241.094711 305.415619,250.008896 
z"/>
<path fill="#C1BBB8" opacity="1.000000" stroke="none" 
	d="
M157.815521,211.895248 
	C157.972443,211.006546 158.129349,210.117828 158.937195,209.107605 
	C160.033844,209.009323 160.479568,209.032547 160.936401,209.423096 
	C160.958359,210.526871 160.969208,211.263290 160.783112,212.186432 
	C161.066559,212.903625 161.546951,213.434082 162.278214,214.085663 
	C163.017899,214.472656 163.506714,214.738541 164.051178,215.320831 
	C165.074142,216.753571 166.041458,217.869934 166.643463,219.087372 
	C166.187241,222.312881 165.574509,225.536148 166.142731,228.535706 
	C166.794708,231.977295 168.493576,235.220581 169.737656,238.550018 
	C172.951523,237.045959 176.166260,235.543747 179.376373,234.031723 
	C179.519150,233.964447 179.629547,233.816284 179.738586,233.691422 
	C181.808823,231.321213 182.791702,229.059677 180.003662,226.350769 
	C178.095596,224.496841 176.629135,222.188400 175.328278,220.102661 
	C178.792068,221.419495 181.892883,222.716812 185.006744,224.403534 
	C185.018478,228.325836 189.017410,231.670776 185.145996,235.437103 
	C181.624054,238.863434 178.531693,242.727036 175.152802,246.306168 
	C172.929184,248.661575 170.533203,250.854248 167.322769,253.990967 
	C166.622208,251.250168 166.381699,249.719559 165.834915,248.307541 
	C165.003494,246.160400 163.959702,244.095520 163.005280,241.579453 
	C163.003937,239.775848 163.003448,238.388489 163.307892,236.823471 
	C164.795792,234.006561 162.118362,219.030685 160.077576,217.382614 
	C159.627853,217.019440 158.822311,217.096848 158.183350,216.620834 
	C158.062531,214.811951 157.939026,213.353607 157.815521,211.895248 
z"/>
<path fill="#DDD1CF" opacity="1.000000" stroke="none" 
	d="
M265.002441,324.002441 
	C265.834198,323.460144 266.665924,322.917847 267.994751,322.438477 
	C267.602142,326.330109 272.189240,325.742706 273.052795,328.157715 
	C272.716980,329.212341 272.381134,330.266998 271.771332,331.805664 
	C271.352448,332.588684 271.207520,332.887634 271.062592,333.186584 
	C267.587402,341.790314 264.554382,350.615112 260.418243,358.888397 
	C258.775452,362.174377 254.687256,364.237793 251.281662,366.558319 
	C249.977432,365.437653 249.103912,364.616486 248.671967,364.210388 
	C249.917465,361.517761 250.960556,359.262665 252.002075,357.003815 
	C252.000488,357.000061 252.007599,357.003113 252.344772,356.934662 
	C257.464783,351.868805 260.162720,346.018188 259.996155,338.662964 
	C259.999847,337.888245 260.002502,337.445526 260.296906,336.836121 
	C261.060913,334.779633 261.533142,332.889801 262.046692,330.657379 
	C262.395447,329.211823 262.702850,328.108856 263.320984,326.948669 
	C264.086975,326.260010 264.542267,325.628571 264.998505,324.748474 
	C264.999451,324.499786 265.002441,324.002441 265.002441,324.002441 
z"/>
<path fill="#DDD1CF" opacity="1.000000" stroke="none" 
	d="
M152.934357,259.808136 
	C152.943542,259.098602 152.952728,258.389099 153.265717,257.104126 
	C154.052475,255.352600 154.535446,254.176483 155.383942,253.059174 
	C161.174393,257.905121 159.495773,264.534576 159.171432,270.176025 
	C158.578049,280.496521 156.474030,290.730133 154.647125,301.045197 
	C153.201279,300.534119 151.893219,300.190918 151.073822,299.363678 
	C150.196762,298.478180 149.780090,297.136658 149.162476,295.994171 
	C149.758133,289.615845 150.353806,283.237488 151.262711,276.197906 
	C151.657272,273.995697 151.738602,272.454742 151.819916,270.913788 
	C151.863464,269.863251 151.907028,268.812714 152.248962,267.178406 
	C152.388519,265.731262 152.229736,264.867920 152.070953,264.004547 
	C152.023834,263.249176 151.976715,262.493835 152.213531,261.227356 
	C152.643112,260.413544 152.788742,260.110840 152.934357,259.808136 
z"/>
<path fill="#D38B7F" opacity="1.000000" stroke="none" 
	d="
M215.489853,117.070412 
	C212.566666,112.125717 207.152344,110.354927 202.682510,107.587906 
	C197.699310,104.503082 191.955490,102.646988 186.195679,100.104042 
	C186.325302,99.019020 186.801987,98.086014 187.861893,97.016357 
	C188.654175,96.604660 188.863220,96.329605 189.072266,96.054550 
	C189.072266,96.054550 189.373459,95.897179 189.838043,95.880386 
	C190.567795,95.598129 190.832947,95.332657 191.098099,95.067184 
	C191.098099,95.067184 191.346420,94.910484 191.941772,95.073212 
	C193.858765,95.181526 195.185287,95.025223 196.501251,95.088448 
	C210.007431,95.737221 217.821609,104.800537 215.489853,117.070412 
z"/>
<path fill="#E5E0DC" opacity="1.000000" stroke="none" 
	d="
M273.399170,328.001801 
	C272.189240,325.742706 267.602142,326.330109 268.242889,322.250854 
	C269.231262,318.222443 270.468597,314.444550 272.160645,310.169464 
	C273.388062,308.816559 274.407227,308.080811 274.891998,307.084930 
	C277.322388,302.092194 279.554443,297.002747 281.998627,292.017059 
	C282.530731,290.931671 283.646118,290.132202 284.492859,289.201019 
	C284.768860,290.285309 284.944244,291.409180 285.351013,292.441956 
	C285.708923,293.350586 286.325745,294.157196 286.828186,295.008881 
	C283.249420,303.855865 279.659973,312.698578 276.099701,321.552948 
	C275.264404,323.630280 274.527618,325.747192 273.399170,328.001801 
z"/>
<path fill="#4C48A8" opacity="1.000000" stroke="none" 
	d="
M321.247467,170.760712 
	C312.479065,169.317474 303.676788,168.044937 294.965302,166.315125 
	C292.690186,165.863388 290.697571,163.988785 288.281342,162.891724 
	C286.042908,158.030762 284.487152,152.836258 281.968262,148.160629 
	C280.915558,146.206604 277.816559,145.354996 275.299835,143.993439 
	C277.475891,140.006134 280.000061,136.027512 282.810974,131.955566 
	C283.428772,131.860794 283.759827,131.859329 284.453033,132.194702 
	C284.862976,133.802460 284.668945,135.140091 284.998169,136.333359 
	C286.968811,143.475540 289.323883,150.522415 291.018219,157.726334 
	C292.156769,162.567245 295.775635,164.273361 299.589691,165.749207 
	C301.844421,166.621658 304.489471,166.422394 306.889557,166.995804 
	C311.700745,168.145248 316.464264,169.494141 321.247467,170.760712 
z"/>
<path fill="#D6CECB" opacity="1.000000" stroke="none" 
	d="
M149.089661,296.440247 
	C149.780090,297.136658 150.196762,298.478180 151.073822,299.363678 
	C151.893219,300.190918 153.201279,300.534119 154.646713,301.446991 
	C154.700531,303.245422 154.682068,304.823669 154.057449,306.106812 
	C150.214493,314.001221 151.385208,322.313751 152.053879,330.527405 
	C152.180939,332.088196 153.982330,333.512665 155.011169,335.000031 
	C155.256958,335.804688 155.502747,336.609314 155.656830,337.913300 
	C155.991516,340.983612 158.710068,343.442749 155.943649,346.169525 
	C150.134079,343.385498 146.913269,338.607361 147.086258,332.336090 
	C147.412445,320.510742 148.339523,308.701996 149.089661,296.440247 
z"/>
<path fill="#AD8F8B" opacity="1.000000" stroke="none" 
	d="
M278.025269,216.968811 
	C278.025269,216.968811 278.428009,217.072586 278.673889,217.454773 
	C280.295013,219.542786 281.670258,221.248611 283.057434,223.280090 
	C283.724548,224.393997 284.379639,225.182236 285.029602,225.977814 
	C285.024475,225.985168 285.042633,225.965515 284.879120,226.251053 
	C283.878510,226.838913 282.793274,227.638199 282.244049,227.363968 
	C278.286926,225.388153 274.429169,223.211578 270.557709,221.066544 
	C264.580322,217.754715 259.140045,213.220886 251.858032,212.897675 
	C252.731781,211.148666 253.605530,209.399658 255.122086,207.341644 
	C256.392822,206.944855 257.020721,206.857040 257.648651,206.769257 
	C257.648651,206.769257 257.845398,206.520569 257.869537,206.447632 
	C259.951782,207.581512 262.009918,208.788330 264.558105,210.381500 
	C265.755219,211.068451 266.462189,211.369034 267.169189,211.669617 
	C269.534790,212.742432 271.900391,213.815231 274.687317,215.295654 
	C276.080872,216.125107 277.053070,216.546951 278.025269,216.968811 
z"/>
<path fill="#DDD1CF" opacity="1.000000" stroke="none" 
	d="
M286.911163,294.639771 
	C286.325745,294.157196 285.708923,293.350586 285.351013,292.441956 
	C284.944244,291.409180 284.768860,290.285309 284.492859,289.201019 
	C283.646118,290.132202 282.530731,290.931671 281.998627,292.017059 
	C279.554443,297.002747 277.322388,302.092194 274.891998,307.084930 
	C274.407227,308.080811 273.388062,308.816559 272.308258,309.836517 
	C273.063477,300.175446 279.020050,292.367493 282.893158,283.705383 
	C284.173248,280.842438 285.681885,278.038818 287.442902,275.450989 
	C288.390228,274.058868 290.093689,273.181335 291.724182,271.853119 
	C292.729858,273.476227 293.456512,274.649017 294.504608,275.913422 
	C292.215393,282.093536 289.604767,288.182098 286.911163,294.639771 
z"/>
<path fill="#C4915A" opacity="1.000000" stroke="none" 
	d="
M174.820419,176.820358 
	C175.368210,177.156830 175.614365,177.671219 175.925888,178.977295 
	C175.990448,180.505829 175.989609,181.242676 175.782898,182.103424 
	C175.323181,182.436279 175.139938,182.695175 175.006638,183.386566 
	C174.674866,185.513916 174.363754,187.258743 174.037201,189.444092 
	C174.775146,210.062927 181.676331,216.499222 197.726624,224.026550 
	C201.926483,225.996216 206.676193,226.793472 211.173370,228.129166 
	C210.299316,228.544846 209.425262,228.960526 207.927704,229.605530 
	C202.538391,228.223480 197.772583,226.612122 192.797638,224.806549 
	C192.055511,224.429184 191.522537,224.246063 190.823120,223.818497 
	C190.117477,223.367233 189.578278,223.160416 188.800186,222.710770 
	C184.142380,218.590744 179.060135,215.224533 175.540176,210.654922 
	C173.232285,207.658813 173.183441,202.922577 172.138031,198.507751 
	C172.061630,194.676239 171.970093,191.302628 171.878571,187.929031 
	C172.758636,184.285446 173.638702,180.641861 174.820419,176.820358 
z"/>
<path fill="#9D4C42" opacity="1.000000" stroke="none" 
	d="
M180.959229,109.353493 
	C185.269089,112.011787 189.428864,114.953430 193.465317,118.055550 
	C196.284653,120.222290 199.391129,122.507805 194.519806,125.876518 
	C194.050003,126.201416 194.185394,127.401474 193.635284,128.587067 
	C192.131989,128.992172 191.033249,129.005447 189.934494,129.018738 
	C182.961441,126.780357 178.176804,115.865280 180.959229,109.353493 
z"/>
<path fill="#E5E0DC" opacity="1.000000" stroke="none" 
	d="
M171.520233,188.117523 
	C171.970093,191.302628 172.061630,194.676239 171.856415,198.753448 
	C171.516983,203.229752 171.601379,207.010361 171.367233,210.771103 
	C171.277283,212.215683 170.461334,213.615067 169.647156,215.026703 
	C168.878723,215.011047 168.439362,215.003738 167.840973,214.698105 
	C165.429718,212.618439 163.177490,210.837097 160.925278,209.055756 
	C160.479568,209.032547 160.033844,209.009323 159.253403,208.983322 
	C157.911346,205.230682 160.309921,200.056793 165.110550,198.084595 
	C169.873260,196.127960 171.779724,193.201004 171.520233,188.117523 
z"/>
<path fill="#D0C6C4" opacity="1.000000" stroke="none" 
	d="
M156.070374,346.484467 
	C158.710068,343.442749 155.991516,340.983612 155.784698,338.205688 
	C157.984909,339.820160 160.686737,341.282288 161.807465,343.532013 
	C164.852997,349.645813 170.801437,351.342499 176.058594,354.276550 
	C178.896042,355.860168 181.338791,358.151031 183.972809,360.474304 
	C173.914703,357.751831 164.314850,353.743774 156.070374,346.484467 
z"/>
<path fill="#DDD1CF" opacity="1.000000" stroke="none" 
	d="
M241.031845,161.620148 
	C238.173050,160.842773 234.860657,160.415405 232.460815,158.706512 
	C225.613708,153.830841 217.791931,152.798004 209.418091,151.664215 
	C208.981262,151.458084 208.975677,151.172363 208.975677,151.172363 
	C214.203262,151.158890 219.430847,151.145416 225.062531,151.807495 
	C227.020859,152.962677 228.575119,153.442291 230.129364,153.921921 
	C230.129364,153.921921 230.583832,153.971252 230.889664,154.394409 
	C232.515259,155.173859 233.835022,155.530151 235.154785,155.886459 
	C235.154785,155.886459 235.070282,155.895065 235.189774,156.093842 
	C235.587402,156.502045 235.865540,156.711456 236.143661,156.920883 
	C236.143661,156.920883 236.594696,156.968307 236.943192,157.234589 
	C237.539078,157.708801 237.821762,157.841751 238.139709,157.899704 
	C238.139709,157.899704 238.058289,157.923904 238.184357,158.115692 
	C238.586380,158.508499 238.862335,158.709534 239.138306,158.910553 
	C239.138306,158.910553 239.586334,158.964737 239.810333,159.302216 
	C240.301315,160.071930 240.568314,160.504166 240.835312,160.936401 
	C240.835312,160.936401 240.994949,161.384979 241.031845,161.620148 
z"/>
<path fill="#C9BFBD" opacity="1.000000" stroke="none" 
	d="
M158.180634,216.971359 
	C158.822311,217.096848 159.627853,217.019440 160.077576,217.382614 
	C162.118362,219.030685 164.795792,234.006561 163.024597,236.574921 
	C161.957092,234.616425 161.711761,232.626434 160.941467,230.866180 
	C159.895111,228.475067 158.447205,226.259674 157.154663,223.548523 
	C157.069626,222.009857 157.001434,220.891602 156.933243,219.773331 
	C156.933243,219.773331 156.931946,219.358948 157.257935,219.004028 
	C157.782837,218.089844 157.981735,217.530609 158.180634,216.971359 
z"/>
<path fill="#D6CECB" opacity="1.000000" stroke="none" 
	d="
M252.003662,357.007568 
	C250.960556,359.262665 249.917465,361.517761 248.671967,364.210388 
	C249.103912,364.616486 249.977432,365.437653 250.927856,366.575043 
	C247.926468,367.835541 244.848175,368.779846 241.391327,369.779144 
	C242.308807,367.279510 243.467468,364.641632 244.948425,362.199097 
	C245.963242,360.525391 247.426620,359.123657 249.223175,357.302521 
	C250.505798,357.005646 251.254730,357.006622 252.003662,357.007568 
z"/>
<path fill="#E5E0DC" opacity="1.000000" stroke="none" 
	d="
M215.560852,117.415787 
	C217.821609,104.800537 210.007431,95.737221 196.501251,95.088448 
	C195.185287,95.025223 193.858765,95.181526 192.079086,95.125198 
	C204.413559,91.038055 217.051849,97.712219 216.961685,111.536865 
	C216.947830,113.660820 216.772156,115.783714 216.284424,118.160751 
	C215.808990,118.196648 215.720428,117.978905 215.560852,117.415787 
z"/>
<path fill="#B7594B" opacity="1.000000" stroke="none" 
	d="
M190.138443,129.361176 
	C191.033249,129.005447 192.131989,128.992172 193.644806,128.975616 
	C199.499161,129.316193 204.633133,128.921875 208.501007,124.226372 
	C209.190674,123.389145 210.874054,123.370483 212.470428,122.956810 
	C206.726913,131.292740 199.096817,133.586502 190.138443,129.361176 
z"/>
<path fill="#E5E0DC" opacity="1.000000" stroke="none" 
	d="
M156.561462,219.999817 
	C157.001434,220.891602 157.069626,222.009857 157.112640,223.993927 
	C156.397797,234.239929 155.708115,243.620148 155.018433,253.000366 
	C154.535446,254.176483 154.052475,255.352600 153.332703,256.755676 
	C154.034744,247.027084 154.995941,237.073532 155.895630,227.114410 
	C156.102142,224.828186 156.097275,222.522842 156.561462,219.999817 
z"/>
<path fill="#E5E0DC" opacity="1.000000" stroke="none" 
	d="
M179.704193,170.833679 
	C178.699524,171.801682 177.694855,172.769699 176.418488,173.863327 
	C177.639847,170.929260 178.730515,167.567078 180.739151,164.894943 
	C182.747086,162.223770 185.673264,160.242859 188.576965,157.956543 
	C188.957001,157.953720 189.015442,158.011917 189.142761,158.256348 
	C189.296402,158.682617 189.322739,158.864441 189.199127,159.258240 
	C189.013824,159.639618 188.978470,159.809052 188.652466,160.144714 
	C185.475952,163.818512 182.590073,167.326096 179.704193,170.833679 
z"/>
<path fill="#4C48A8" opacity="1.000000" stroke="none" 
	d="
M336.383911,173.932007 
	C331.941284,173.036591 327.761108,171.983582 323.325378,170.524246 
	C324.365784,169.882614 325.696930,169.333801 326.950775,169.474426 
	C329.968292,169.812897 332.949554,170.474274 335.945465,171.005417 
	C336.006622,171.326523 336.165222,171.588654 336.625000,171.907928 
	C336.767944,172.607498 336.707184,173.190964 336.383911,173.932007 
z"/>
<path fill="#E5E0DC" opacity="1.000000" stroke="none" 
	d="
M208.538971,151.095932 
	C208.975677,151.172363 208.981262,151.458084 208.990326,151.597992 
	C204.484390,153.006470 199.969406,154.275024 194.867859,155.823151 
	C193.526230,156.074921 192.771179,156.047089 191.984512,155.985504 
	C191.952911,155.951782 191.889404,155.884613 191.889404,155.884613 
	C196.465927,151.504395 202.164078,150.861969 208.538971,151.095932 
z"/>
<path fill="#C9BFBD" opacity="1.000000" stroke="none" 
	d="
M217.406586,368.902466 
	C219.423904,366.029236 221.754028,365.663147 223.971069,369.456421 
	C221.932205,369.549042 219.869751,369.263367 217.406586,368.902466 
z"/>
<path fill="#E5E0DC" opacity="1.000000" stroke="none" 
	d="
M257.517517,206.372437 
	C257.020721,206.857040 256.392822,206.944855 255.285461,207.065170 
	C254.997528,203.909851 255.189011,200.722000 255.611145,197.221069 
	C256.356689,199.930527 256.871552,202.953064 257.517517,206.372437 
z"/>
<path fill="#E5E0DC" opacity="1.000000" stroke="none" 
	d="
M158.183350,216.620834 
	C157.981735,217.530609 157.782837,218.089844 157.333755,218.811203 
	C157.092789,216.756851 157.102005,214.540405 157.463379,212.109589 
	C157.939026,213.353607 158.062531,214.811951 158.183350,216.620834 
z"/>
<path fill="#E5E0DC" opacity="1.000000" stroke="none" 
	d="
M151.475983,271.102844 
	C151.738602,272.454742 151.657272,273.995697 151.336487,275.760315 
	C151.108688,274.419952 151.120361,272.855927 151.475983,271.102844 
z"/>
<path fill="#E5E0DC" opacity="1.000000" stroke="none" 
	d="
M229.969345,153.596848 
	C228.575119,153.442291 227.020859,152.962677 225.290253,152.184341 
	C226.679047,152.347687 228.244186,152.809738 229.969345,153.596848 
z"/>
<path fill="#E5E0DC" opacity="1.000000" stroke="none" 
	d="
M235.001038,155.566772 
	C233.835022,155.530151 232.515259,155.173859 231.105743,154.468918 
	C232.293091,154.495880 233.570190,154.871490 235.001038,155.566772 
z"/>
<path fill="#E5E0DC" opacity="1.000000" stroke="none" 
	d="
M188.928467,157.923920 
	C189.680038,157.250275 190.460144,156.606400 191.564819,155.923569 
	C191.889404,155.884613 191.952911,155.951782 191.996552,156.347458 
	C191.031937,157.166061 190.023697,157.589005 189.015442,158.011932 
	C189.015442,158.011917 188.957001,157.953720 188.928467,157.923920 
z"/>
<path fill="#413A89" opacity="1.000000" stroke="none" 
	d="
M319.434937,198.201843 
	C319.507416,197.546127 319.950500,196.848404 320.734558,196.107101 
	C320.652222,196.762299 320.228912,197.461060 319.434937,198.201843 
z"/>
<path fill="#E5E0DC" opacity="1.000000" stroke="none" 
	d="
M152.011810,264.374939 
	C152.229736,264.867920 152.388519,265.731262 152.320358,266.789734 
	C152.046494,266.238342 151.999573,265.491852 152.011810,264.374939 
z"/>
<path fill="#E5E0DC" opacity="1.000000" stroke="none" 
	d="
M304.370911,253.057404 
	C304.186493,252.605545 304.307159,252.016739 304.659821,251.226318 
	C304.819916,251.656631 304.747955,252.288544 304.370911,253.057404 
z"/>
<path fill="#413A89" opacity="1.000000" stroke="none" 
	d="
M321.339783,196.241486 
	C321.500916,195.733521 321.962555,195.387192 322.728638,195.052109 
	C322.568848,195.509949 322.104584,195.956543 321.339783,196.241486 
z"/>
<path fill="#413A89" opacity="1.000000" stroke="none" 
	d="
M323.354431,194.916016 
	C323.243805,194.457108 323.424286,193.881302 323.889648,193.170319 
	C323.998169,193.623123 323.821869,194.211105 323.354431,194.916016 
z"/>
<path fill="#C4915A" opacity="1.000000" stroke="none" 
	d="
M176.052917,175.163269 
	C176.103653,175.437302 176.061142,175.906693 175.806000,176.258881 
	C175.716278,175.881042 175.838394,175.620026 176.052917,175.163269 
z"/>
<path fill="#E5E0DC" opacity="1.000000" stroke="none" 
	d="
M240.912903,160.624603 
	C240.568314,160.504166 240.301315,160.071930 240.023590,159.375916 
	C240.338730,159.512360 240.664612,159.912582 240.912903,160.624603 
z"/>
<path fill="#E5E0DC" opacity="1.000000" stroke="none" 
	d="
M152.670212,259.910156 
	C152.788742,260.110840 152.643112,260.413544 152.284195,260.854065 
	C152.182632,260.665314 152.294342,260.338715 152.670212,259.910156 
z"/>
<path fill="#E5E0DC" opacity="1.000000" stroke="none" 
	d="
M188.789413,96.030853 
	C188.863220,96.329605 188.654175,96.604660 188.165741,96.890106 
	C188.093094,96.602715 188.299820,96.304939 188.789413,96.030853 
z"/>
<path fill="#E5E0DC" opacity="1.000000" stroke="none" 
	d="
M190.791031,95.051880 
	C190.832947,95.332657 190.567795,95.598129 190.004303,95.915466 
	C189.965302,95.657074 190.224625,95.346817 190.791031,95.051880 
z"/>
<path fill="#E5E0DC" opacity="1.000000" stroke="none" 
	d="
M239.046570,158.660400 
	C238.862335,158.709534 238.586380,158.508499 238.193573,158.074219 
	C238.369431,158.030746 238.662125,158.220505 239.046570,158.660400 
z"/>
<path fill="#E5E0DC" opacity="1.000000" stroke="none" 
	d="
M303.306396,255.051529 
	C303.130829,254.815796 303.279938,254.532944 303.692383,254.152481 
	C303.787720,254.339874 303.679504,254.656372 303.306396,255.051529 
z"/>
<path fill="#E5E0DC" opacity="1.000000" stroke="none" 
	d="
M271.327515,333.087341 
	C271.207520,332.887634 271.352448,332.588684 271.705933,332.150238 
	C271.807190,332.336548 271.699829,332.662323 271.327515,333.087341 
z"/>
<path fill="#E5E0DC" opacity="1.000000" stroke="none" 
	d="
M236.052765,156.666412 
	C235.865540,156.711456 235.587402,156.502045 235.196167,156.051865 
	C235.376007,156.011383 235.668930,156.211670 236.052765,156.666412 
z"/>
<path fill="#E5E0DC" opacity="1.000000" stroke="none" 
	d="
M238.049484,157.645874 
	C237.821762,157.841751 237.539078,157.708801 237.158524,157.305695 
	C237.336655,157.204346 237.647964,157.298187 238.049484,157.645874 
z"/>
<path fill="#C98A30" opacity="1.000000" stroke="none" 
	d="
M211.594055,228.107697 
	C206.676193,226.793472 201.926483,225.996216 197.726624,224.026550 
	C181.676331,216.499222 174.775146,210.062927 174.393265,189.493073 
	C177.444809,190.363831 180.218384,191.461029 182.788757,192.916962 
	C194.125122,199.338242 205.596939,205.554977 216.610977,212.494492 
	C221.327103,215.465958 227.773636,217.581329 227.587250,224.976639 
	C224.427094,226.016663 221.658752,227.042923 218.890396,228.069183 
	C216.598511,228.074860 214.306625,228.080536 211.594055,228.107697 
z"/>
<path fill="#EBC362" opacity="1.000000" stroke="none" 
	d="
M189.142761,158.256348 
	C190.023697,157.589005 191.031937,157.166061 192.028137,156.381195 
	C192.771179,156.047089 193.526230,156.074921 194.663574,156.114288 
	C199.393478,156.712479 201.843353,158.527802 203.140106,163.375870 
	C203.880600,166.144302 208.281403,168.107285 211.284119,170.045624 
	C214.001892,171.800003 217.083923,172.981552 219.960999,174.499710 
	C224.554306,176.923477 229.116226,177.580780 234.282654,175.928970 
	C238.024597,174.732605 242.234802,174.088531 246.085571,174.525467 
	C248.042160,174.747482 249.666183,177.900574 251.741821,179.917542 
	C251.212418,181.389542 250.381744,182.672592 249.359650,184.251328 
	C247.759171,182.872574 246.680832,181.943634 245.562408,180.980164 
	C243.060165,183.094452 240.979431,185.520859 238.355057,186.946335 
	C230.073318,191.444717 222.100204,188.538773 214.662994,184.673630 
	C206.463013,180.412094 197.698364,176.446045 190.994797,170.353958 
	C185.903305,165.726944 183.838943,169.217010 180.080551,170.850342 
	C182.590073,167.326096 185.475952,163.818512 188.805603,160.087311 
	C189.532913,159.630020 189.566147,159.357559 189.349075,159.046280 
	C189.322739,158.864441 189.296402,158.682617 189.142761,158.256348 
z"/>
<path fill="#DEA841" opacity="1.000000" stroke="none" 
	d="
M175.988770,181.979507 
	C175.989609,181.242676 175.990448,180.505829 176.002228,179.401688 
	C179.114487,179.880569 182.501617,180.190247 185.268494,181.664200 
	C198.502609,188.714096 211.387711,196.440857 224.786057,203.149765 
	C229.933640,205.727310 236.114731,206.240891 241.803574,207.689514 
	C242.907059,206.054291 243.981979,204.461349 245.297424,202.511993 
	C249.800156,211.268021 245.234894,220.368805 236.557953,220.685471 
	C237.425720,216.768890 235.904129,215.252670 232.508865,213.782669 
	C224.671127,210.389328 216.947952,206.625854 209.532166,202.392593 
	C201.833466,197.997849 194.641693,192.723801 187.046738,188.134644 
	C183.582123,186.041199 179.681458,184.669403 175.981842,182.722595 
	C175.985092,182.474899 175.988785,181.979507 175.988770,181.979507 
z"/>
<path fill="#D59A36" opacity="1.000000" stroke="none" 
	d="
M175.978577,182.970276 
	C179.681458,184.669403 183.582123,186.041199 187.046738,188.134644 
	C194.641693,192.723801 201.833466,197.997849 209.532166,202.392593 
	C216.947952,206.625854 224.671127,210.389328 232.508865,213.782669 
	C235.904129,215.252670 237.425720,216.768890 236.160858,220.684357 
	C233.901291,222.441513 231.777206,223.869247 229.090103,225.147888 
	C228.344406,224.986816 228.161728,224.974838 227.979050,224.962875 
	C227.773636,217.581329 221.327103,215.465958 216.610977,212.494492 
	C205.596939,205.554977 194.125122,199.338242 182.788757,192.916962 
	C180.218384,191.461029 177.444809,190.363831 174.408691,189.052521 
	C174.363754,187.258743 174.674866,185.513916 175.244324,183.379044 
	C175.502686,182.988983 175.978577,182.970276 175.978577,182.970276 
z"/>
<path fill="#BAB0AC" opacity="1.000000" stroke="none" 
	d="
M246.790558,220.849304 
	C247.962799,219.020828 249.135056,217.192383 250.892181,215.138275 
	C254.844345,216.324173 258.885925,216.985413 261.450562,219.290131 
	C268.690399,225.796249 275.236298,233.135376 286.227966,232.421997 
	C286.472046,232.406158 286.742859,232.802200 287.003418,233.339752 
	C287.011749,234.118484 287.017883,234.563553 286.987488,235.300293 
	C286.634094,236.063156 286.317200,236.534363 285.620667,237.014038 
	C283.699707,237.581299 282.041687,237.935974 280.639282,238.737732 
	C276.668915,241.007568 273.214935,241.144226 269.366150,238.021667 
	C262.027405,232.067734 254.335724,226.548813 246.790558,220.849304 
z"/>
<path fill="#C1BBB8" opacity="1.000000" stroke="none" 
	d="
M246.467987,220.907196 
	C254.335724,226.548813 262.027405,232.067734 269.366150,238.021667 
	C273.214935,241.144226 276.668915,241.007568 280.639282,238.737732 
	C282.041687,237.935974 283.699707,237.581299 285.458191,237.318054 
	C285.118866,239.084122 284.562408,240.554642 284.005981,242.025177 
	C282.470825,242.507339 280.935669,242.989517 278.727600,243.684784 
	C273.936615,243.602356 269.814758,243.350952 265.701782,242.996307 
	C262.789246,242.745148 259.888702,242.354370 256.922485,241.686768 
	C253.470123,238.292618 250.128113,235.179428 246.665466,232.206741 
	C244.885300,230.678436 242.890091,229.400620 240.992508,227.633118 
	C240.993118,226.503708 240.993286,225.750778 240.993454,224.997849 
	C240.993454,224.997849 240.999390,224.999390 241.214294,224.888123 
	C241.698364,224.583298 241.891922,224.331635 242.009888,224.021820 
	C243.388382,223.002899 244.766891,221.983994 246.467987,220.907196 
z"/>
<path fill="#B6A8A1" opacity="1.000000" stroke="none" 
	d="
M287.001221,233.006104 
	C286.742859,232.802200 286.472046,232.406158 286.227966,232.421997 
	C275.236298,233.135376 268.690399,225.796249 261.450562,219.290131 
	C258.885925,216.985413 254.844345,216.324173 251.130310,214.904984 
	C250.993607,214.358200 251.203629,213.819077 251.635834,213.088806 
	C259.140045,213.220886 264.580322,217.754715 270.557709,221.066544 
	C274.429169,223.211578 278.286926,225.388153 282.244049,227.363968 
	C282.793274,227.638199 283.878510,226.838913 285.233459,226.307419 
	C286.835022,228.388901 287.918701,230.699570 288.668823,233.006195 
	C287.890625,233.003479 287.445923,233.004791 287.001221,233.006104 
z"/>
<path fill="#DCB4AB" opacity="1.000000" stroke="none" 
	d="
M240.629089,225.029694 
	C240.993286,225.750778 240.993118,226.503708 240.739456,227.881104 
	C235.883087,230.231750 231.225372,231.830536 226.715103,233.771881 
	C225.557816,234.269989 224.865723,235.848923 223.599945,236.891144 
	C220.487213,235.893387 217.734482,234.935806 214.620941,233.808884 
	C209.512787,232.743774 204.765427,231.848007 199.850830,230.667450 
	C197.793060,229.256424 195.902527,228.130173 193.896973,226.747864 
	C193.523575,225.994797 193.265182,225.497772 193.006790,225.000763 
	C197.772583,226.612122 202.538391,228.223480 207.691833,229.781784 
	C217.666290,232.544434 226.773911,230.376373 235.756866,227.033783 
	C237.291626,226.462692 238.763702,225.723221 240.629089,225.029694 
z"/>
<path fill="#C4915A" opacity="1.000000" stroke="none" 
	d="
M227.587250,224.976639 
	C228.161728,224.974838 228.344406,224.986816 228.802307,225.012024 
	C227.300262,230.104980 222.716888,227.503632 219.176086,228.303650 
	C221.658752,227.042923 224.427094,226.016663 227.587250,224.976639 
z"/>
<path fill="#DCB4AB" opacity="1.000000" stroke="none" 
	d="
M241.781494,224.112762 
	C241.891922,224.331635 241.698364,224.583298 241.214264,224.885605 
	C241.082458,224.659760 241.267059,224.396210 241.781494,224.112762 
z"/>
<path fill="#D0C6C4" opacity="1.000000" stroke="none" 
	d="
M194.011993,227.003922 
	C195.902527,228.130173 197.793060,229.256424 199.698456,230.962738 
	C195.631165,235.984070 202.734879,236.845505 202.443802,240.183441 
	C194.197021,243.497375 187.512299,248.763412 184.475632,257.361053 
	C183.176071,261.040497 183.368835,265.247070 182.883514,269.214111 
	C186.818604,269.565186 190.846329,270.593018 194.661850,270.070679 
	C198.241364,269.580688 201.616409,266.203003 205.046875,266.257843 
	C220.437424,266.503906 235.863846,267.010345 251.179855,268.455566 
	C260.074005,269.294800 261.085907,269.190796 259.929352,260.201416 
	C259.763855,258.915375 259.036560,257.710327 258.769318,256.426178 
	C258.509766,255.178986 258.210205,253.817444 258.456146,252.614029 
	C258.923004,250.329895 259.766998,248.122833 260.671387,245.176834 
	C261.156342,245.223328 262.575531,245.378326 263.997955,245.492523 
	C270.331482,246.000931 276.665894,246.497681 283.000000,246.998657 
	C283.748749,247.000977 284.497528,247.003281 285.620544,247.009598 
	C288.839203,248.712372 291.683624,250.411118 294.786499,252.264221 
	C294.693604,252.628677 294.712494,253.629974 294.357269,253.787415 
	C288.659027,256.313385 287.447083,261.465698 285.715637,266.800415 
	C283.856232,272.529205 280.062683,277.610168 277.984680,283.292542 
	C274.298828,293.371643 271.269287,303.690826 267.969818,313.911133 
	C266.972046,317.001831 265.989777,320.097504 265.001434,323.596680 
	C265.002441,324.002441 264.999451,324.499786 264.687134,324.805176 
	C263.919952,325.742340 263.465118,326.374115 263.010254,327.005920 
	C262.702850,328.108856 262.395447,329.211823 261.791992,330.899536 
	C260.998993,333.323853 260.502045,335.163330 260.005127,337.002838 
	C260.002502,337.445526 259.999847,337.888245 259.652954,338.735840 
	C256.875031,345.094849 254.441315,351.048981 252.007599,357.003113 
	C252.007599,357.003113 252.000488,357.000061 252.002075,357.003815 
	C251.254730,357.006622 250.505798,357.005646 249.382706,357.006012 
	C249.715469,354.684326 250.266708,352.299835 251.155594,350.048676 
	C255.549957,338.919922 260.871735,328.072021 264.221436,316.642944 
	C266.917328,307.444702 267.636230,297.587128 268.380951,287.956299 
	C268.554626,285.710449 265.759064,282.452271 263.477661,280.981140 
	C259.975098,278.722565 255.734558,277.608398 251.172211,275.736877 
	C245.442032,274.160950 240.330658,272.916351 235.254776,271.540833 
	C222.337448,268.040161 209.546494,267.392822 196.586487,273.003815 
	C189.027466,274.065430 184.045441,278.342773 179.983795,283.978821 
	C173.651260,284.347107 170.265076,289.388611 167.308685,293.568085 
	C160.080444,303.786743 154.864655,315.081116 155.013748,328.083313 
	C155.038116,330.209656 155.312881,332.333130 155.241547,334.729004 
	C153.982330,333.512665 152.180939,332.088196 152.053879,330.527405 
	C151.385208,322.313751 150.214493,314.001221 154.057449,306.106812 
	C154.682068,304.823669 154.700531,303.245422 154.999588,301.401794 
	C156.474030,290.730133 158.578049,280.496521 159.171432,270.176025 
	C159.495773,264.534576 161.174393,257.905121 155.383942,253.059174 
	C155.708115,243.620148 156.397797,234.239929 157.129486,224.414322 
	C158.447205,226.259674 159.895111,228.475067 160.941467,230.866180 
	C161.711761,232.626434 161.957092,234.616425 162.719650,236.752594 
	C163.003448,238.388489 163.003937,239.775848 163.002365,242.024689 
	C163.618607,250.796951 164.236908,258.707733 164.855209,266.618530 
	C165.430634,266.696930 166.006042,266.775299 166.581451,266.853699 
	C167.606598,265.470917 168.681778,264.122131 169.648560,262.699677 
	C174.815872,255.096786 177.767822,245.976227 185.116669,239.877594 
	C188.272400,237.258713 190.822510,234.536621 190.322876,229.959549 
	C190.222916,229.043945 191.413452,227.987457 192.222839,227.076584 
	C192.961807,227.106140 193.486893,227.055038 194.011993,227.003922 
z"/>
<path fill="#D0C6C4" opacity="1.000000" stroke="none" 
	d="
M189.320160,354.139832 
	C185.725082,351.860443 182.437042,349.740723 179.172531,347.585388 
	C175.599945,345.226685 171.257843,343.116730 172.763763,337.730103 
	C173.840530,333.878540 178.394928,332.346313 184.436874,334.463593 
	C191.871582,337.068878 198.918289,340.762024 206.275604,343.616699 
	C209.428040,344.839905 212.942688,345.125824 216.289368,345.853302 
	C219.035858,346.450287 221.781204,347.053589 224.519882,347.685120 
	C227.390747,348.347107 230.940536,348.485382 230.448135,352.782074 
	C230.051254,356.245087 224.981491,359.378845 221.222260,358.841766 
	C219.423508,358.584808 217.630814,358.285461 215.412903,358.009979 
	C213.278839,358.011810 211.567215,358.009003 209.204529,357.762573 
	C207.700699,357.348846 206.847916,357.178680 205.995148,357.008545 
	C205.551544,357.009338 205.107941,357.010132 204.136551,356.781036 
	C202.739029,356.697174 201.869278,356.843201 200.999542,356.989197 
	C200.558258,356.987701 200.116974,356.986237 199.266052,356.649231 
	C196.904495,355.876221 194.952576,355.438721 193.000656,355.001221 
	C191.879623,354.762085 190.758606,354.522949 189.320160,354.139832 
z"/>
<path fill="#B6A8A1" opacity="1.000000" stroke="none" 
	d="
M180.984741,288.993011 
	C182.980515,286.904938 184.976288,284.816864 187.386139,282.368042 
	C189.843384,281.657684 191.886536,281.308075 194.300201,280.976440 
	C196.112289,281.676453 197.553848,282.358490 198.961578,283.339050 
	C198.594223,284.114197 198.260696,284.590851 197.576630,285.101868 
	C195.572464,285.884766 193.968445,286.780579 192.256866,287.357056 
	C183.455902,290.321350 181.594986,298.717224 180.933899,305.671448 
	C180.460464,310.651520 185.157623,316.267517 187.981415,321.359375 
	C189.531830,324.155060 191.980042,326.452911 194.013550,328.985565 
	C194.003662,328.995911 193.982590,329.017090 193.638336,328.967468 
	C189.269058,325.328156 185.332764,321.632385 181.198105,318.173767 
	C175.075577,313.052338 173.517365,307.191956 176.571594,299.747589 
	C178.042419,296.162628 179.513687,292.577881 180.984741,288.993011 
z"/>
<path fill="#BAB0AC" opacity="1.000000" stroke="none" 
	d="
M259.016876,312.004211 
	C259.459320,323.076416 254.541092,332.261475 247.745026,340.218658 
	C245.609741,342.718750 240.498077,343.981812 236.919296,343.693542 
	C227.092560,342.901978 217.356339,340.986755 207.291534,339.259338 
	C203.810257,337.178772 200.621750,335.355133 197.398956,333.038818 
	C197.908279,332.365051 198.451889,332.183990 198.997742,332.001465 
	C199.000000,332.000000 198.998535,332.004364 199.160278,332.297791 
	C200.891129,333.387482 202.460251,334.183807 204.357758,334.980408 
	C205.123947,334.988373 205.561737,334.996063 206.135376,335.265137 
	C207.178223,335.697205 208.085236,335.867889 209.374771,336.042999 
	C211.498367,336.385529 213.239426,336.723602 215.087830,337.421234 
	C222.394272,341.270142 229.906982,340.028809 237.422394,339.383453 
	C243.530365,338.858978 247.884293,335.135742 250.418320,330.455383 
	C253.487991,324.785767 254.878952,318.207275 257.332947,312.015198 
	C258.118652,312.006927 258.567780,312.005585 259.016876,312.004211 
z"/>
<path fill="#BAB0AC" opacity="1.000000" stroke="none" 
	d="
M180.639526,289.041016 
	C179.513687,292.577881 178.042419,296.162628 176.571594,299.747589 
	C173.517365,307.191956 175.075577,313.052338 181.198105,318.173767 
	C185.332764,321.632385 189.269058,325.328156 193.643051,329.299500 
	C193.991089,330.124451 193.990173,330.567810 193.989258,331.011139 
	C192.464432,330.470215 190.754745,330.205780 189.451126,329.334076 
	C186.166428,327.137695 183.385757,323.795502 179.824417,322.484650 
	C171.847687,319.548523 171.378479,312.524475 171.756958,306.566376 
	C172.163803,300.161957 173.663849,293.038849 180.639526,289.041016 
z"/>
<path fill="#C9BFBD" opacity="1.000000" stroke="none" 
	d="
M193.929688,280.958435 
	C191.886536,281.308075 189.843384,281.657684 187.396103,282.014404 
	C184.898697,282.646240 182.805420,283.270996 180.347961,283.937286 
	C184.045441,278.342773 189.027466,274.065430 196.631851,273.338379 
	C196.027634,276.102173 194.978668,278.530304 193.929688,280.958435 
z"/>
<path fill="#B6A8A1" opacity="1.000000" stroke="none" 
	d="
M194.145935,331.288452 
	C193.990173,330.567810 193.991089,330.124451 193.987305,329.349121 
	C193.982590,329.017090 194.003662,328.995911 194.389572,328.991577 
	C196.182144,329.992493 197.588821,330.997711 198.995499,332.002930 
	C198.451889,332.183990 197.908279,332.365051 197.182098,332.773682 
	C196.100555,332.522736 195.201599,332.044281 194.145935,331.288452 
z"/>
<path fill="#C9BFBD" opacity="1.000000" stroke="none" 
	d="
M193.248260,355.250732 
	C194.952576,355.438721 196.904495,355.876221 198.935104,356.648254 
	C197.174469,356.488617 195.335175,355.994415 193.248260,355.250732 
z"/>
<path fill="#C9BFBD" opacity="1.000000" stroke="none" 
	d="
M206.054657,357.319855 
	C206.847916,357.178680 207.700699,357.348846 208.776474,357.763062 
	C208.037720,357.881805 207.075943,357.756470 206.054657,357.319855 
z"/>
<path fill="#C9BFBD" opacity="1.000000" stroke="none" 
	d="
M201.195068,357.220032 
	C201.869278,356.843201 202.739029,356.697174 203.803864,356.782532 
	C203.129501,357.159546 202.260040,357.305176 201.195068,357.220032 
z"/>
<path fill="#DCB4AB" opacity="1.000000" stroke="none" 
	d="
M194.300217,280.976440 
	C194.978668,278.530304 196.027634,276.102173 197.031235,273.339478 
	C209.546494,267.392822 222.337448,268.040161 235.254776,271.540833 
	C240.330658,272.916351 245.442032,274.160950 250.774139,275.737366 
	C252.571594,278.494995 253.636078,281.582916 255.785767,283.352814 
	C262.211090,288.642914 262.509247,295.607758 261.884033,302.844391 
	C261.621155,305.886658 260.456604,308.850983 259.359436,311.927490 
	C258.567780,312.005585 258.118652,312.006927 256.955750,311.994324 
	C255.084793,310.873932 253.610809,309.949982 252.843918,308.618713 
	C251.663101,306.568909 250.967285,304.239716 250.039581,301.661774 
	C246.300690,294.643860 240.194290,290.779510 233.457825,288.143494 
	C227.978790,285.999481 222.173187,284.392303 216.365829,283.469513 
	C210.674576,282.565186 204.844101,280.039917 198.995407,283.040527 
	C197.553848,282.358490 196.112289,281.676453 194.300217,280.976440 
z"/>
<path fill="#7373D2" opacity="1.000000" stroke="none" 
	d="
M335.927277,170.647476 
	C332.949554,170.474274 329.968292,169.812897 326.950775,169.474426 
	C325.696930,169.333801 324.365784,169.882614 322.920837,170.451447 
	C322.431946,170.793930 322.092010,170.802872 321.499786,170.786255 
	C316.464264,169.494141 311.700745,168.145248 306.889557,166.995804 
	C304.489471,166.422394 301.844421,166.621658 299.589691,165.749207 
	C295.775635,164.273361 292.156769,162.567245 291.018219,157.726334 
	C289.323883,150.522415 286.968811,143.475540 284.998169,136.333359 
	C284.668945,135.140091 284.862976,133.802460 284.949585,132.190887 
	C291.729309,131.318649 293.487244,136.804596 295.727478,141.094467 
	C297.205292,143.924316 296.819031,147.695511 298.160004,150.638458 
	C299.357941,153.267365 301.476166,156.930710 303.718323,157.358292 
	C310.531464,158.657578 316.493835,162.936951 324.340271,161.420929 
	C329.219574,160.478180 334.141022,164.540878 335.927277,170.647476 
z"/>
<path fill="#D6CECB" opacity="1.000000" stroke="none" 
	d="
M282.784729,246.754028 
	C276.665894,246.497681 270.331482,246.000931 263.997955,245.492523 
	C262.575531,245.378326 261.156342,245.223328 260.671387,245.176834 
	C259.766998,248.122833 258.923004,250.329895 258.456146,252.614029 
	C258.210205,253.817444 258.509766,255.178986 258.769318,256.426178 
	C259.036560,257.710327 259.763855,258.915375 259.929352,260.201416 
	C261.085907,269.190796 260.074005,269.294800 251.179855,268.455566 
	C235.863846,267.010345 220.437424,266.503906 205.046875,266.257843 
	C201.616409,266.203003 198.241364,269.580688 194.661850,270.070679 
	C190.846329,270.593018 186.818604,269.565186 182.883514,269.214111 
	C183.368835,265.247070 183.176071,261.040497 184.475632,257.361053 
	C187.512299,248.763412 194.197021,243.497375 202.443802,240.183441 
	C202.734879,236.845505 195.631165,235.984070 199.865692,231.247528 
	C204.765427,231.848007 209.512787,232.743774 214.544586,234.160812 
	C211.994904,235.004883 209.160767,235.327682 206.326645,235.650497 
	C207.041245,237.629822 208.334763,238.344666 209.331360,239.352982 
	C210.306915,240.339966 211.505875,241.584595 211.601181,242.795288 
	C211.664841,243.604218 210.062256,244.679428 209.045761,245.414978 
	C204.544006,248.672501 199.815262,251.645477 195.544296,255.175858 
	C194.180130,256.303467 193.220596,258.964630 193.520203,260.670471 
	C193.700699,261.698120 196.607758,262.461487 198.398102,262.917297 
	C199.618713,263.228058 201.029907,262.831085 202.350845,262.699890 
	C207.948166,262.143860 213.532547,261.301270 219.142578,261.068909 
	C226.054108,260.782684 232.990479,260.861328 239.907928,261.062927 
	C242.861496,261.148987 244.522812,259.896942 244.666306,257.253387 
	C244.960770,251.828400 249.234085,246.720032 246.404694,241.034058 
	C250.207077,241.369553 253.594955,241.697739 256.982819,242.025925 
	C259.888702,242.354370 262.789246,242.745148 265.701782,242.996307 
	C269.814758,243.350952 273.936615,243.602356 278.459961,243.902481 
	C280.099976,244.774521 281.334686,245.641968 282.784729,246.754028 
z"/>
<path fill="#C9BFBD" opacity="1.000000" stroke="none" 
	d="
M289.002380,233.010223 
	C287.918701,230.699570 286.835022,228.388901 285.396973,226.021881 
	C285.042633,225.965515 285.024475,225.985168 285.020447,225.632980 
	C284.359467,224.505341 283.702454,223.729889 283.045471,222.954437 
	C281.670258,221.248611 280.295013,219.542786 278.878174,217.493683 
	C282.122040,219.231598 285.407532,221.312805 288.910522,224.051727 
	C290.118317,228.492065 291.108551,232.274658 292.098785,236.057251 
	C289.644684,238.042526 287.190552,240.027786 284.371216,242.019104 
	C284.562408,240.554642 285.118866,239.084122 285.837799,237.309586 
	C286.317200,236.534363 286.634094,236.063156 287.295776,235.242493 
	C288.094513,234.265442 288.548431,233.637833 289.002380,233.010223 
z"/>
<path fill="#DDD1CF" opacity="1.000000" stroke="none" 
	d="
M292.471863,236.028976 
	C291.108551,232.274658 290.118317,228.492065 289.085541,224.342010 
	C291.237366,226.443436 293.809784,228.681381 295.504211,231.455597 
	C296.815765,233.602951 295.783752,235.671982 292.471863,236.028976 
z"/>
<path fill="#C9BFBD" opacity="1.000000" stroke="none" 
	d="
M277.952606,216.633606 
	C277.053070,216.546951 276.080872,216.125107 275.034058,215.367981 
	C275.932922,215.454605 276.906433,215.876511 277.952606,216.633606 
z"/>
<path fill="#C9BFBD" opacity="1.000000" stroke="none" 
	d="
M267.053040,211.387756 
	C266.462189,211.369034 265.755219,211.068451 264.937134,210.473938 
	C265.529694,210.488632 266.233307,210.797256 267.053040,211.387756 
z"/>
<path fill="#C9BFBD" opacity="1.000000" stroke="none" 
	d="
M192.008972,226.995926 
	C191.413452,227.987457 190.222916,229.043945 190.322876,229.959549 
	C190.822510,234.536621 188.272400,237.258713 185.116669,239.877594 
	C177.767822,245.976227 174.815872,255.096786 169.648560,262.699677 
	C168.681778,264.122131 167.606598,265.470917 166.581451,266.853699 
	C166.006042,266.775299 165.430634,266.696930 164.855209,266.618530 
	C164.236908,258.707733 163.618607,250.796951 163.003204,242.440918 
	C163.959702,244.095520 165.003494,246.160400 165.834915,248.307541 
	C166.381699,249.719559 166.622208,251.250168 167.322769,253.990967 
	C170.533203,250.854248 172.929184,248.661575 175.152802,246.306168 
	C178.531693,242.727036 181.624054,238.863434 185.145996,235.437103 
	C189.017410,231.670776 185.018478,228.325836 185.332611,224.538925 
	C186.781662,224.526535 187.917908,224.768143 189.271515,225.008102 
	C189.488876,225.006439 189.924789,225.018356 189.999573,225.327728 
	C190.719223,226.090042 191.364090,226.542984 192.008972,226.995926 
z"/>
<path fill="#BAB0AC" opacity="1.000000" stroke="none" 
	d="
M174.965271,220.083145 
	C176.629135,222.188400 178.095596,224.496841 180.003662,226.350769 
	C182.791702,229.059677 181.808823,231.321213 179.738586,233.691422 
	C179.629547,233.816284 179.519150,233.964447 179.376373,234.031723 
	C176.166260,235.543747 172.951523,237.045959 169.737656,238.550018 
	C168.493576,235.220581 166.794708,231.977295 166.142731,228.535706 
	C165.574509,225.536148 166.187241,222.312881 166.973633,219.093170 
	C168.109543,219.005692 168.549973,219.013504 169.132050,219.283066 
	C170.194046,219.670700 171.114380,219.796585 172.401764,219.933975 
	C173.500992,219.991364 174.233124,220.037262 174.965271,220.083145 
z"/>
<path fill="#DDD1CF" opacity="1.000000" stroke="none" 
	d="
M175.328278,220.102661 
	C174.233124,220.037262 173.500992,219.991364 172.399139,219.698578 
	C172.029419,219.451691 172.016113,218.979431 171.952362,218.659363 
	C171.251144,217.237869 170.613678,216.136459 169.976196,215.035034 
	C170.461334,213.615067 171.277283,212.215683 171.367233,210.771103 
	C171.601379,207.010361 171.516983,203.229752 171.841278,199.211380 
	C173.183441,202.922577 173.232285,207.658813 175.540176,210.654922 
	C179.060135,215.224533 184.142380,218.590744 188.786301,223.053619 
	C189.025604,224.096146 189.039886,224.552948 189.054169,225.009766 
	C187.917908,224.768143 186.781662,224.526535 185.319550,224.149536 
	C181.892883,222.716812 178.792068,221.419495 175.328278,220.102661 
z"/>
<path fill="#DDD1CF" opacity="1.000000" stroke="none" 
	d="
M160.936401,209.423096 
	C163.177490,210.837097 165.429718,212.618439 167.634048,214.919266 
	C166.389267,215.293976 165.192398,215.149216 163.995514,215.004440 
	C163.506714,214.738541 163.017899,214.472656 162.239929,213.796585 
	C161.627197,212.924164 161.303619,212.461945 160.980057,211.999710 
	C160.969208,211.263290 160.958359,210.526871 160.936401,209.423096 
z"/>
<path fill="#D0C6C4" opacity="1.000000" stroke="none" 
	d="
M164.051178,215.320831 
	C165.192398,215.149216 166.389267,215.293976 167.793076,215.217590 
	C168.439362,215.003738 168.878723,215.011047 169.647141,215.026703 
	C170.613678,216.136459 171.251144,217.237869 171.573944,218.667664 
	C170.502975,219.004471 169.746674,219.012894 168.990387,219.021317 
	C168.549973,219.013504 168.109543,219.005692 167.338959,218.992081 
	C166.041458,217.869934 165.074142,216.753571 164.051178,215.320831 
z"/>
<path fill="#D0C6C4" opacity="1.000000" stroke="none" 
	d="
M160.783112,212.186432 
	C161.303619,212.461945 161.627197,212.924164 161.989044,213.675476 
	C161.546951,213.434082 161.066559,212.903625 160.783112,212.186432 
z"/>
<path fill="#D6CECB" opacity="1.000000" stroke="none" 
	d="
M252.344788,356.934662 
	C254.441315,351.048981 256.875031,345.094849 259.651917,339.067871 
	C260.162720,346.018188 257.464783,351.868805 252.344788,356.934662 
z"/>
<path fill="#D6CECB" opacity="1.000000" stroke="none" 
	d="
M260.296875,336.836121 
	C260.502045,335.163330 260.998993,333.323853 261.750641,331.242188 
	C261.533142,332.889801 261.060913,334.779633 260.296875,336.836121 
z"/>
<path fill="#D6CECB" opacity="1.000000" stroke="none" 
	d="
M263.320984,326.948669 
	C263.465118,326.374115 263.919952,325.742340 264.686188,325.053833 
	C264.542267,325.628571 264.086975,326.260010 263.320984,326.948669 
z"/>
<path fill="#B6A8A1" opacity="1.000000" stroke="none" 
	d="
M283.057434,223.280090 
	C283.702454,223.729889 284.359467,224.505341 285.025604,225.625641 
	C284.379639,225.182236 283.724548,224.393997 283.057434,223.280090 
z"/>
<path fill="#DDD1CF" opacity="1.000000" stroke="none" 
	d="
M192.222839,227.076584 
	C191.364090,226.542984 190.719223,226.090042 190.217621,225.214981 
	C190.643021,224.612015 190.852585,224.368713 190.989578,224.062927 
	C191.522537,224.246063 192.055511,224.429184 192.797638,224.806534 
	C193.265182,225.497772 193.523575,225.994797 193.896973,226.747864 
	C193.486893,227.055038 192.961807,227.106140 192.222839,227.076584 
z"/>
<path fill="#DCB4AB" opacity="1.000000" stroke="none" 
	d="
M190.823120,223.818481 
	C190.852585,224.368713 190.643021,224.612015 190.142838,224.905609 
	C189.924789,225.018356 189.488876,225.006439 189.271515,225.008102 
	C189.039886,224.552948 189.025604,224.096146 189.025208,223.296478 
	C189.578278,223.160416 190.117477,223.367233 190.823120,223.818481 
z"/>
<path fill="#E4B751" opacity="1.000000" stroke="none" 
	d="
M175.981842,182.722595 
	C175.978577,182.970276 175.502686,182.988983 175.264984,182.996506 
	C175.139938,182.695175 175.323181,182.436279 175.782898,182.103424 
	C175.988785,181.979507 175.985092,182.474899 175.981842,182.722595 
z"/>
<path fill="#F2D176" opacity="1.000000" stroke="none" 
	d="
M189.199127,159.258240 
	C189.566147,159.357559 189.532913,159.630020 189.096237,159.921082 
	C188.978470,159.809052 189.013824,159.639618 189.199127,159.258240 
z"/>
<path fill="#C1BBB8" opacity="1.000000" stroke="none" 
	d="
M288.668854,233.006195 
	C288.548431,233.637833 288.094513,234.265442 287.332275,234.950836 
	C287.017883,234.563553 287.011749,234.118484 287.003418,233.339752 
	C287.445923,233.004791 287.890625,233.003479 288.668854,233.006195 
z"/>
<path fill="#C9BFBD" opacity="1.000000" stroke="none" 
	d="
M256.922485,241.686768 
	C253.594955,241.697739 250.207077,241.369553 246.000153,241.013245 
	C238.107376,239.633865 231.033661,238.282593 223.959930,236.931335 
	C224.865723,235.848923 225.557816,234.269989 226.715103,233.771881 
	C231.225372,231.830536 235.883087,230.231750 240.739014,228.257584 
	C242.890091,229.400620 244.885300,230.678436 246.665466,232.206741 
	C250.128113,235.179428 253.470123,238.292618 256.922485,241.686768 
z"/>
<path fill="#DDD1CF" opacity="1.000000" stroke="none" 
	d="
M223.599945,236.891144 
	C231.033661,238.282593 238.107376,239.633865 245.585648,241.005951 
	C249.234085,246.720032 244.960770,251.828400 244.666306,257.253387 
	C244.522812,259.896942 242.861496,261.148987 239.907928,261.062927 
	C232.990479,260.861328 226.054108,260.782684 219.142578,261.068909 
	C213.532547,261.301270 207.948166,262.143860 202.350845,262.699890 
	C201.029907,262.831085 199.618713,263.228058 198.398102,262.917297 
	C196.607758,262.461487 193.700699,261.698120 193.520203,260.670471 
	C193.220596,258.964630 194.180130,256.303467 195.544296,255.175858 
	C199.815262,251.645477 204.544006,248.672501 209.045761,245.414978 
	C210.062256,244.679428 211.664841,243.604218 211.601181,242.795288 
	C211.505875,241.584595 210.306915,240.339966 209.331360,239.352982 
	C208.334763,238.344666 207.041245,237.629822 206.326645,235.650497 
	C209.160767,235.327682 211.994904,235.004883 214.905396,234.330154 
	C217.734482,234.935806 220.487213,235.893387 223.599945,236.891144 
z"/>
<path fill="#D38B7F" opacity="1.000000" stroke="none" 
	d="
M198.961578,283.339050 
	C204.844101,280.039917 210.674576,282.565186 216.365829,283.469513 
	C222.173187,284.392303 227.978790,285.999481 233.457825,288.143494 
	C240.194290,290.779510 246.300690,294.643860 249.753418,301.958496 
	C249.334946,306.760132 249.176498,310.897766 248.620895,315.026306 
	C247.164764,315.038452 246.105820,315.059723 244.747284,314.899048 
	C242.955399,312.460815 241.463074,310.204529 239.815216,307.655914 
	C238.945374,306.674927 238.307983,305.876434 237.505157,305.314178 
	C226.242874,297.426514 213.631271,294.425110 199.642258,295.044342 
	C198.472000,295.024445 197.690857,295.011841 196.928146,294.597992 
	C197.894913,291.773987 198.843246,289.351257 199.957626,286.504272 
	C199.722397,286.337830 198.824768,285.702667 197.927155,285.067505 
	C198.260696,284.590851 198.594223,284.114197 198.961578,283.339050 
z"/>
<path fill="#AD8F8B" opacity="1.000000" stroke="none" 
	d="
M197.576630,285.101868 
	C198.824768,285.702667 199.722397,286.337830 199.957626,286.504272 
	C198.843246,289.351257 197.894913,291.773987 196.619202,294.750854 
	C188.333832,298.579071 184.302490,309.578888 188.944687,316.760803 
	C196.873245,329.027008 208.064514,335.145142 223.052170,335.195343 
	C234.270508,335.232910 244.969208,329.049591 245.046860,315.080994 
	C246.105820,315.059723 247.164764,315.038452 248.621017,315.433594 
	C248.294571,318.857941 247.723755,321.912689 246.818787,324.865051 
	C243.961594,334.186157 240.099640,336.964966 230.254929,337.011902 
	C225.163483,337.036163 220.071976,337.045532 214.980499,337.061646 
	C213.239426,336.723602 211.498367,336.385529 209.159164,335.790161 
	C207.707199,335.356476 206.853363,335.180115 205.999527,335.003754 
	C205.561737,334.996063 205.123947,334.988373 204.290680,334.622864 
	C202.262970,333.511505 200.630753,332.757935 198.998535,332.004364 
	C198.998535,332.004364 199.000000,332.000000 198.997742,332.001465 
	C197.588821,330.997711 196.182144,329.992493 194.399460,328.981262 
	C191.980042,326.452911 189.531830,324.155060 187.981415,321.359375 
	C185.157623,316.267517 180.460464,310.651520 180.933899,305.671448 
	C181.594986,298.717224 183.455902,290.321350 192.256866,287.357056 
	C193.968445,286.780579 195.572464,285.884766 197.576630,285.101868 
z"/>
<path fill="#B6A8A1" opacity="1.000000" stroke="none" 
	d="
M215.087830,337.421234 
	C220.071976,337.045532 225.163483,337.036163 230.254929,337.011902 
	C240.099640,336.964966 243.961594,334.186157 246.818787,324.865051 
	C247.723755,321.912689 248.294571,318.857941 249.018188,315.442719 
	C249.176498,310.897766 249.334946,306.760132 249.779541,302.325775 
	C250.967285,304.239716 251.663101,306.568909 252.843918,308.618713 
	C253.610809,309.949982 255.084793,310.873932 256.619141,312.001221 
	C254.878952,318.207275 253.487991,324.785767 250.418320,330.455383 
	C247.884293,335.135742 243.530365,338.858978 237.422394,339.383453 
	C229.906982,340.028809 222.394272,341.270142 215.087830,337.421234 
z"/>
<path fill="#B6A8A1" opacity="1.000000" stroke="none" 
	d="
M199.160278,332.297791 
	C200.630753,332.757935 202.262970,333.511505 203.962280,334.622559 
	C202.460251,334.183807 200.891129,333.387482 199.160278,332.297791 
z"/>
<path fill="#B6A8A1" opacity="1.000000" stroke="none" 
	d="
M206.135376,335.265137 
	C206.853363,335.180115 207.707199,335.356476 208.776642,335.785706 
	C208.085236,335.867889 207.178223,335.697205 206.135376,335.265137 
z"/>
<path fill="#C1BBB8" opacity="1.000000" stroke="none" 
	d="
M169.132050,219.283066 
	C169.746674,219.012894 170.502975,219.004471 171.637695,218.987732 
	C172.016113,218.979431 172.029419,219.451691 172.032059,219.687073 
	C171.114380,219.796585 170.194046,219.670700 169.132050,219.283066 
z"/>
<path fill="#A1706B" opacity="1.000000" stroke="none" 
	d="
M244.747284,314.899048 
	C244.969208,329.049591 234.270508,335.232910 223.052170,335.195343 
	C208.064514,335.145142 196.873245,329.027008 188.944687,316.760803 
	C184.302490,309.578888 188.333832,298.579071 196.600769,295.152100 
	C197.690857,295.011841 198.472000,295.024445 199.633392,295.432434 
	C200.011429,296.867920 200.009201,297.908081 199.660568,299.115845 
	C193.976105,300.651611 191.321030,303.753540 191.042542,308.947144 
	C190.743454,314.524872 194.220078,320.205383 199.000671,321.930054 
	C199.032822,321.962524 199.106110,322.017059 199.092606,322.374969 
	C200.902908,327.137512 204.637253,328.507080 208.979233,328.970032 
	C209.003372,328.990356 209.055298,329.026215 209.112335,329.345062 
	C210.754181,330.109924 212.338989,330.555908 214.327393,331.009521 
	C216.838074,331.341003 218.945190,331.664886 221.325714,332.244507 
	C225.425919,331.824280 229.416306,331.621552 233.043381,330.367798 
	C239.412384,328.166199 241.443222,325.358826 240.810959,318.925568 
	C240.477829,315.536102 238.388382,312.319244 237.368042,308.881775 
	C238.419647,308.475494 239.195206,308.211884 239.970749,307.948273 
	C241.463074,310.204529 242.955399,312.460815 244.747284,314.899048 
z"/>
<path fill="#C4915A" opacity="1.000000" stroke="none" 
	d="
M200.006989,298.948242 
	C200.009201,297.908081 200.011429,296.867920 200.022507,295.439697 
	C213.631271,294.425110 226.242874,297.426514 237.505157,305.314178 
	C238.307983,305.876434 238.945374,306.674927 239.815216,307.655914 
	C239.195206,308.211884 238.419647,308.475494 237.059174,308.717163 
	C234.482773,307.235382 232.683029,304.993286 230.466873,304.450043 
	C220.441437,301.992706 210.802322,297.152313 200.006989,298.948242 
z"/>
<path fill="#B7594B" opacity="1.000000" stroke="none" 
	d="
M199.660568,299.115845 
	C210.802322,297.152313 220.441437,301.992706 230.466873,304.450043 
	C232.683029,304.993286 234.482773,307.235382 236.783112,308.859833 
	C238.388382,312.319244 240.477829,315.536102 240.810959,318.925568 
	C241.443222,325.358826 239.412384,328.166199 233.043381,330.367798 
	C229.416306,331.621552 225.425919,331.824280 221.578705,331.994080 
	C222.026169,331.339996 222.579773,331.305115 222.947845,331.025787 
	C225.166168,329.342224 227.890427,327.944092 229.274292,325.721313 
	C229.865112,324.772339 228.127426,321.166290 226.589767,320.311890 
	C220.464203,316.908295 214.147156,313.727112 207.605026,311.243164 
	C203.932755,309.848877 199.681305,309.980011 194.385101,309.241882 
	C196.322556,314.591553 197.645554,318.244568 198.968536,321.897583 
	C194.220078,320.205383 190.743454,314.524872 191.042542,308.947144 
	C191.321030,303.753540 193.976105,300.651611 199.660568,299.115845 
z"/>
<path fill="#9D4C42" opacity="1.000000" stroke="none" 
	d="
M199.000671,321.930054 
	C197.645554,318.244568 196.322556,314.591553 194.385101,309.241882 
	C199.681305,309.980011 203.932755,309.848877 207.605026,311.243164 
	C214.147156,313.727112 220.464203,316.908295 226.589767,320.311890 
	C228.127426,321.166290 229.865112,324.772339 229.274292,325.721313 
	C227.890427,327.944092 225.166168,329.342224 222.947845,331.025787 
	C222.579773,331.305115 222.026169,331.339996 221.305313,331.738312 
	C218.945190,331.664886 216.838074,331.341003 214.121490,330.745056 
	C212.026459,329.990692 210.540878,329.508453 209.055298,329.026215 
	C209.055298,329.026215 209.003372,328.990356 208.813629,328.682068 
	C205.451279,326.254852 202.278702,324.135956 199.106110,322.017059 
	C199.106110,322.017059 199.032822,321.962524 199.000671,321.930054 
z"/>
<path fill="#B7594B" opacity="1.000000" stroke="none" 
	d="
M199.092621,322.374969 
	C202.278702,324.135956 205.451279,326.254852 208.789490,328.661743 
	C204.637253,328.507080 200.902908,327.137512 199.092621,322.374969 
z"/>
<path fill="#B7594B" opacity="1.000000" stroke="none" 
	d="
M209.112335,329.345062 
	C210.540878,329.508453 212.026459,329.990692 213.717926,330.737427 
	C212.338989,330.555908 210.754181,330.109924 209.112335,329.345062 
z"/>
</svg>