<svg version="1.1" id="Layer_1" xmlns="http://www.w3.org/2000/svg" xmlns:xlink="http://www.w3.org/1999/xlink" x="0px" y="0px"
	 width="100%" viewBox="0 0 464 464" enable-background="new 0 0 464 464" xml:space="preserve">
<path fill="#F9F9F9" opacity="1.000000" stroke="none" 
	d="
M0.999998,436.000000 
	C1.000000,300.976685 1.000000,165.953354 1.347686,30.404942 
	C2.290051,28.948202 3.029171,28.078136 3.456770,27.075245 
	C7.194354,18.309124 13.047319,11.370973 21.232538,6.470392 
	C24.432903,4.554301 27.740980,2.818122 31.000000,1.000000 
	C165.356659,1.000000 299.713318,1.000000 434.602722,1.355394 
	C435.776001,2.139660 436.362213,2.715744 437.065247,2.975078 
	C446.094055,6.305661 453.607849,11.513178 458.627502,19.953964 
	C460.653595,23.360964 462.870117,26.654720 465.000000,30.000006 
	C465.000000,165.023331 465.000000,300.046661 464.652283,435.595032 
	C463.709900,437.051758 462.970764,437.921844 462.543152,438.924744 
	C458.805511,447.690796 452.952911,454.629242 444.767456,459.529633 
	C441.567047,461.445648 438.259003,463.181854 435.000000,465.000000 
	C300.643341,465.000000 166.286682,465.000000 31.397263,464.644592 
	C30.223997,463.860352 29.637814,463.284271 28.934793,463.024872 
	C19.906324,459.693817 12.391788,454.487305 7.372461,446.046021 
	C5.346531,442.638947 3.129865,439.345276 0.999998,436.000000 
M172.465912,184.544540 
	C172.020218,188.742905 171.574524,192.941254 170.380478,197.127716 
	C165.872772,198.375595 161.525009,199.833405 159.723099,205.656174 
	C159.500610,206.782471 159.278137,207.908783 158.967728,209.841553 
	C158.666901,212.558487 158.366058,215.275436 157.956970,218.820267 
	C157.358032,223.531433 156.759094,228.242584 156.033966,233.854095 
	C155.669052,239.908524 155.304123,245.962936 154.609802,252.740265 
	C153.072372,267.479523 151.505539,282.215790 150.007935,296.959106 
	C149.025406,306.631592 148.072342,316.308197 147.242783,325.994659 
	C146.762558,331.601715 146.306076,337.307617 152.015991,341.786469 
	C159.102539,351.170013 169.490005,355.178101 180.662842,359.311249 
	C192.778015,362.201019 204.893204,365.090790 217.584473,368.523743 
	C220.058167,368.643738 222.531860,368.763763 225.665283,368.950165 
	C226.106720,368.938629 226.548141,368.927124 227.916580,369.014038 
	C232.266785,368.973816 236.616974,368.933594 241.769943,368.945831 
	C245.516235,367.633209 249.262543,366.320587 253.696823,364.928619 
	C255.643280,363.187653 258.421631,361.816833 259.390015,359.640625 
	C263.268280,350.925140 266.584961,341.959747 270.624084,332.623169 
	C276.099701,318.768280 281.575317,304.913361 287.598053,290.610260 
	C289.721405,285.732788 291.844727,280.855316 294.277527,275.340088 
	C297.880096,265.894684 301.482666,256.449249 305.839478,246.810059 
	C306.217346,245.957764 306.857178,245.128006 306.932709,244.249695 
	C307.724579,235.044510 302.634583,228.981796 295.820099,223.937759 
	C283.376404,214.727005 268.659851,210.174469 254.834564,203.203186 
	C254.741714,196.509979 254.648865,189.816772 254.759384,182.327805 
	C254.386551,180.607056 254.320297,178.742996 253.593353,177.187759 
	C246.510223,162.033691 234.994064,152.534393 218.142670,150.405991 
	C209.498169,149.314148 201.149734,150.453491 193.473602,156.007996 
	C193.473602,156.007996 193.075745,156.166092 192.364807,156.164429 
	C190.569687,157.771194 188.774567,159.377960 186.401382,161.312943 
	C184.621368,163.237518 182.841370,165.162109 180.397705,167.124969 
	C180.067413,167.817688 179.737137,168.510406 179.212921,169.628052 
	C179.212921,169.628052 179.039993,170.061966 178.569839,170.221741 
	C178.267303,170.424591 178.121429,170.708069 178.046967,171.540863 
	C178.046967,171.540863 178.100998,172.014145 177.727020,172.455826 
	C177.426804,172.948929 177.126587,173.442032 176.184082,174.160706 
	C175.121948,177.444000 174.059799,180.727310 172.465912,184.544540 
M180.601547,116.476898 
	C180.610474,116.699051 180.709946,116.867897 180.920380,117.729942 
	C182.720779,123.239632 185.866669,127.489418 192.285538,129.728485 
	C200.015060,132.426529 206.533646,130.639496 212.199951,124.466614 
	C212.199951,124.466614 212.396149,124.191917 212.396149,124.191917 
	C212.396149,124.191917 212.242615,123.890717 212.656448,123.386887 
	C212.735641,123.184486 212.814819,122.982094 213.488876,122.504639 
	C214.070236,120.919304 214.651581,119.333969 215.544052,117.198975 
	C215.594498,116.783089 215.644943,116.367203 216.238541,115.413376 
	C215.771179,111.897774 216.097351,108.022758 214.696487,104.929977 
	C209.188705,92.769997 192.863297,91.030701 186.263916,99.163864 
	C182.655396,102.699921 180.136719,106.731689 180.233856,112.723297 
	C180.398117,113.881485 180.562378,115.039673 180.601547,116.476898 
M283.293091,132.180801 
	C282.382111,133.356781 281.471130,134.532761 280.029144,136.084732 
	C277.482452,139.966415 274.659729,143.699722 272.470428,147.773468 
	C270.470062,151.495605 267.365448,155.839310 267.878326,159.466385 
	C269.343018,169.824768 272.401062,179.957870 274.987701,190.844818 
	C277.007690,192.456635 278.857544,195.144012 281.076996,195.495163 
	C290.991028,197.063721 301.010529,197.965561 311.656067,199.266953 
	C312.107910,199.230972 312.559723,199.194992 313.396545,199.468781 
	C314.180115,199.291595 314.963654,199.114426 316.437592,198.953308 
	C317.593109,198.291702 318.748657,197.630096 320.568146,196.806030 
	C324.352386,191.443130 328.136597,186.080231 332.426270,180.315048 
	C333.246918,178.778320 334.067566,177.241592 335.207458,175.419235 
	C335.218536,174.994507 335.229614,174.569794 335.778687,173.585052 
	C335.787994,173.073837 335.797333,172.562637 335.949005,171.383484 
	C335.905060,170.932526 335.861084,170.481552 335.969299,169.402832 
	C336.011444,168.974442 336.053589,168.546066 336.706573,167.590103 
	C334.395874,157.679016 332.606476,147.596436 329.439117,137.967117 
	C328.552887,135.272812 323.825195,132.848846 320.476135,132.156677 
	C312.566528,130.521957 304.446503,129.667328 296.370422,129.181763 
	C292.620178,128.956299 288.774048,130.325668 284.498657,131.142639 
	C284.292603,131.395935 284.086578,131.649231 283.293091,132.180801 
z"/>
<path fill="#FFFFFF" opacity="1.000000" stroke="none" 
	d="
M435.468658,465.000000 
	C438.259003,463.181854 441.567047,461.445648 444.767456,459.529633 
	C452.952911,454.629242 458.805511,447.690796 462.543152,438.924744 
	C462.970764,437.921844 463.709900,437.051758 464.652283,436.060059 
	C465.000000,445.594391 465.000000,455.188812 465.000000,465.000000 
	C455.313507,465.000000 445.625427,465.000000 435.468658,465.000000 
z"/>
<path fill="#FFFFFF" opacity="1.000000" stroke="none" 
	d="
M30.531342,1.000000 
	C27.740980,2.818122 24.432903,4.554301 21.232538,6.470392 
	C13.047319,11.370973 7.194354,18.309124 3.456770,27.075245 
	C3.029171,28.078136 2.290051,28.948202 1.347686,29.939926 
	C1.000000,20.405594 1.000000,10.811189 1.000000,1.000000 
	C10.686486,1.000000 20.374586,1.000000 30.531342,1.000000 
z"/>
<path fill="#FFFFFF" opacity="1.000000" stroke="none" 
	d="
M465.000000,29.531347 
	C462.870117,26.654720 460.653595,23.360964 458.627502,19.953964 
	C453.607849,11.513178 446.094055,6.305661 437.065247,2.975078 
	C436.362213,2.715744 435.776001,2.139660 435.067749,1.355394 
	C444.925232,1.000000 454.850494,1.000000 465.000000,1.000000 
	C465.000000,10.353035 465.000000,19.707859 465.000000,29.531347 
z"/>
<path fill="#FFFFFF" opacity="1.000000" stroke="none" 
	d="
M0.999998,436.468658 
	C3.129865,439.345276 5.346531,442.638947 7.372461,446.046021 
	C12.391788,454.487305 19.906324,459.693817 28.934793,463.024872 
	C29.637814,463.284271 30.223997,463.860352 30.932251,464.644592 
	C21.074755,465.000000 11.149509,465.000000 1.000000,465.000000 
	C1.000000,455.646973 1.000000,446.292145 0.999998,436.468658 
z"/>
<path fill="#C4BAB7" opacity="1.000000" stroke="none" 
	d="
M217.008392,367.980530 
	C204.893204,365.090790 192.778015,362.201019 180.330002,358.749146 
	C179.434845,357.149109 179.111847,355.495697 178.272797,355.169403 
	C170.742950,352.241333 164.772476,348.231110 159.828781,341.097534 
	C155.347900,334.631805 154.724014,328.593353 155.311310,321.688446 
	C155.644196,317.774567 156.426315,313.898895 157.347656,309.950592 
	C157.976364,309.739105 158.399979,309.657227 158.531006,309.416260 
	C164.335648,298.740601 171.301407,289.056183 181.429581,281.966980 
	C182.244995,281.396240 182.493530,280.015656 183.309387,278.858368 
	C186.743195,276.806396 189.873123,274.907440 193.346786,272.974121 
	C194.790604,272.636261 195.890686,272.332794 197.030640,272.375885 
	C198.357254,275.423523 197.158615,276.784088 194.697342,278.005188 
	C190.375809,280.149170 186.227707,282.642670 181.705292,285.142029 
	C173.984848,292.223907 169.743057,300.498138 171.046005,310.893616 
	C171.683884,315.982971 173.149139,320.389526 178.638412,322.976898 
	C182.223572,324.666779 184.913254,328.256439 187.606567,330.996094 
	C182.898117,329.372894 178.623459,327.639374 174.254807,326.188965 
	C172.884094,325.733887 169.993774,325.780701 169.941467,326.036255 
	C169.045639,330.413177 166.709869,335.623749 168.220047,339.131653 
	C171.439255,346.609344 178.663757,350.972015 186.186752,353.735962 
	C192.193970,355.942993 198.631256,357.009247 204.917404,358.402466 
	C206.187775,358.684021 207.636505,358.160797 209.430695,358.007141 
	C211.569016,358.007812 213.279678,358.010010 215.069107,358.379730 
	C218.525696,359.289215 221.901398,360.246246 225.281876,360.263428 
	C229.123383,360.282990 232.961227,359.326172 236.818604,359.101105 
	C237.802246,359.043701 238.853699,360.148285 239.874023,360.718994 
	C239.094223,361.805664 238.540543,363.424042 237.488815,363.871307 
	C235.098755,364.887726 232.383514,365.126556 229.963104,366.090057 
	C228.783859,366.559479 227.969254,367.944855 226.989578,368.915588 
	C226.548141,368.927124 226.106720,368.938629 225.239502,368.554230 
	C222.211960,368.099060 219.610168,368.039795 217.008392,367.980530 
z"/>
<path fill="#4E3E94" opacity="1.000000" stroke="none" 
	d="
M335.806671,172.051422 
	C335.797333,172.562637 335.787994,173.073837 335.397278,174.035065 
	C334.973297,174.891663 334.930756,175.298264 334.888214,175.704849 
	C334.067566,177.241592 333.246918,178.778320 332.096924,180.196732 
	C328.425476,175.805161 324.306641,173.303894 318.620270,173.949234 
	C310.287048,174.894974 302.723328,172.162277 295.124359,169.186844 
	C292.995758,168.353378 288.880188,168.241135 287.979248,169.477020 
	C285.671661,172.642471 284.624481,176.739365 283.252655,180.528748 
	C283.197418,180.681396 284.923126,181.621796 285.899017,181.972702 
	C287.546021,182.564941 289.292938,182.882065 290.933533,183.488785 
	C293.962616,184.608994 296.963226,185.812363 299.938873,187.068344 
	C301.251007,187.622177 303.568085,188.393341 303.565704,189.059128 
	C303.543152,195.332520 306.843933,195.723816 311.687012,194.271103 
	C312.351624,194.071732 313.339935,195.250534 314.257843,195.533783 
	C316.111053,196.105667 318.018890,196.500565 319.904175,196.968475 
	C318.748657,197.630096 317.593109,198.291702 315.847656,198.824463 
	C314.509003,198.850082 313.760284,199.004547 313.011566,199.158997 
	C312.559723,199.194992 312.107910,199.230972 311.099335,198.908875 
	C306.594635,197.386993 302.713867,195.812759 298.683380,195.153137 
	C292.224762,194.096115 285.605865,194.089172 279.846863,190.154022 
	C278.711334,189.378143 276.530884,190.131485 274.832336,190.179596 
	C272.401062,179.957870 269.343018,169.824768 267.878326,159.466385 
	C267.365448,155.839310 270.470062,151.495605 272.470428,147.773468 
	C274.659729,143.699722 277.482452,139.966415 280.611420,136.099762 
	C287.533356,140.777542 287.001587,148.461884 288.638153,154.855988 
	C290.373016,161.634354 294.027740,165.630112 300.180756,166.745438 
	C310.705719,168.653229 321.401428,169.618866 332.353363,170.993378 
	C333.118744,171.013535 333.556244,171.020477 334.138611,171.262589 
	C334.791199,171.682312 335.298950,171.866867 335.806671,172.051422 
z"/>
<path fill="#C7C0BE" opacity="1.000000" stroke="none" 
	d="
M209.003006,358.008606 
	C207.636505,358.160797 206.187775,358.684021 204.917404,358.402466 
	C198.631256,357.009247 192.193970,355.942993 186.186752,353.735962 
	C178.663757,350.972015 171.439255,346.609344 168.220047,339.131653 
	C166.709869,335.623749 169.045639,330.413177 169.941467,326.036255 
	C169.993774,325.780701 172.884094,325.733887 174.254807,326.188965 
	C178.623459,327.639374 182.898117,329.372894 187.855042,330.998657 
	C188.501007,331.000305 188.998077,331.004822 189.063522,331.353943 
	C191.421173,332.800415 193.713379,333.897766 196.361633,335.002686 
	C198.145111,335.672302 199.572556,336.334320 201.079880,337.370178 
	C203.105423,338.163055 205.051102,338.582123 207.305878,339.133240 
	C209.074615,339.180450 210.534256,339.095642 212.240265,339.012512 
	C212.486618,339.014160 212.979340,339.018372 212.982361,339.265320 
	C212.985397,339.512268 212.996155,340.006104 213.050873,340.343994 
	C214.737473,341.119415 216.369324,341.557007 218.400726,341.995728 
	C219.865723,341.999542 220.931198,342.002228 222.056335,342.344025 
	C223.410873,342.787506 224.705750,342.891876 226.400192,342.997040 
	C227.865356,343.000580 228.930923,343.003326 230.077759,343.377563 
	C235.506134,345.541565 240.363373,348.415588 246.402679,344.113068 
	C250.986115,340.847809 252.664337,336.389832 254.995346,331.619812 
	C255.999939,328.833496 256.998169,326.415527 258.330139,323.998047 
	C259.108826,323.999817 259.553802,324.001129 259.999573,324.409302 
	C259.000488,327.840851 258.010864,330.869019 256.998047,333.889404 
	C255.856003,337.295044 254.710785,340.699829 253.534790,344.093842 
	C252.041702,348.402985 250.516281,352.700897 248.849884,357.311462 
	C246.119034,361.377258 243.543106,365.135315 240.967163,368.893372 
	C236.616974,368.933594 232.266785,368.973816 227.453079,368.964813 
	C227.969254,367.944855 228.783859,366.559479 229.963104,366.090057 
	C232.383514,365.126556 235.098755,364.887726 237.488815,363.871307 
	C238.540543,363.424042 239.094223,361.805664 239.874023,360.718994 
	C238.853699,360.148285 237.802246,359.043701 236.818604,359.101105 
	C232.961227,359.326172 229.123383,360.282990 225.281876,360.263428 
	C221.901398,360.246246 218.525696,359.289215 215.492584,358.375641 
	C217.627960,358.292023 219.416321,358.595520 221.209839,358.864807 
	C224.943558,359.425385 229.083542,356.896698 229.664047,353.441650 
	C230.348526,349.367737 227.262939,348.421112 224.283310,347.650940 
	C221.726089,346.989929 219.122086,346.501770 216.527283,345.996124 
	C213.303650,345.367889 209.931076,345.195312 206.864090,344.130859 
	C198.398529,341.192566 190.061676,337.884003 181.667358,334.739441 
	C178.395935,333.513977 175.226517,333.411469 173.573807,337.086334 
	C171.839722,340.942230 173.709961,344.355042 176.880203,346.077454 
	C182.456009,349.106842 188.372177,351.590088 194.327957,353.814392 
	C199.079071,355.588806 204.101181,356.637695 209.003006,358.008606 
z"/>
<path fill="#E5B74F" opacity="1.000000" stroke="none" 
	d="
M176.826355,173.935120 
	C177.126587,173.442032 177.426804,172.948929 178.274368,172.226898 
	C180.749100,171.196503 183.134399,169.254944 184.516846,169.810211 
	C188.451981,171.390747 192.143875,173.755508 195.634644,176.230331 
	C206.262329,183.765060 217.530182,190.160141 230.428925,192.346375 
	C234.292603,193.001236 240.180603,191.384109 242.574463,188.600510 
	C245.592377,185.091278 248.410141,184.984482 251.999847,185.279327 
	C251.988190,185.712387 251.981598,185.885666 251.639526,186.237427 
	C249.868195,191.267090 248.290359,196.082397 247.051193,200.983307 
	C246.340149,203.795532 248.554031,209.377487 241.987411,205.476227 
	C241.679169,205.293106 240.997620,205.538055 240.585388,205.760513 
	C235.305710,208.609726 230.371506,206.523941 225.863876,204.144180 
	C211.701828,196.667435 197.778641,188.738831 183.632584,181.230820 
	C181.126053,179.900482 177.993973,179.748734 175.227478,178.714142 
	C175.811584,176.895416 176.318970,175.415268 176.826355,173.935120 
z"/>
<path fill="#F3D27A" opacity="1.000000" stroke="none" 
	d="
M193.075745,156.166092 
	C193.075745,156.166092 193.473602,156.007996 194.089691,155.988556 
	C195.666840,155.736588 196.616409,155.423141 197.590820,155.284866 
	C203.103424,154.502609 208.609924,153.632278 214.148758,153.118134 
	C215.249435,153.015976 217.570709,154.573990 217.485611,154.959137 
	C216.605011,158.944794 219.076538,158.902023 221.768372,159.058563 
	C224.743011,159.231537 227.730591,159.535828 230.653137,160.093918 
	C232.008194,160.352661 233.295044,161.240067 234.482437,162.036789 
	C235.982468,163.043274 237.187195,164.670120 238.803024,165.291229 
	C244.558807,167.503723 248.291504,171.661057 250.940002,177.326965 
	C249.810333,177.831467 248.734848,178.123566 247.665604,178.102219 
	C243.989105,178.028778 240.310089,177.672073 236.641495,177.771759 
	C234.559204,177.828339 232.468857,179.034348 230.427460,178.919189 
	C214.572830,178.024780 202.221161,170.717438 192.979507,157.655884 
	C193.021774,156.960129 193.048752,156.563110 193.075745,156.166092 
z"/>
<path fill="#ECC463" opacity="1.000000" stroke="none" 
	d="
M192.964233,157.954620 
	C202.221161,170.717438 214.572830,178.024780 230.427460,178.919189 
	C232.468857,179.034348 234.559204,177.828339 236.641495,177.771759 
	C240.310089,177.672073 243.989105,178.028778 247.665604,178.102219 
	C248.734848,178.123566 249.810333,177.831467 251.202682,177.534058 
	C251.682892,178.247574 251.843384,179.110062 252.007233,180.393402 
	C252.008682,182.216019 252.006790,183.617767 252.004898,185.019531 
	C248.410141,184.984482 245.592377,185.091278 242.574463,188.600510 
	C240.180603,191.384109 234.292603,193.001236 230.428925,192.346375 
	C217.530182,190.160141 206.262329,183.765060 195.634644,176.230331 
	C192.143875,173.755508 188.451981,171.390747 184.516846,169.810211 
	C183.134399,169.254944 180.749100,171.196503 178.461365,172.006058 
	C178.100998,172.014145 178.046967,171.540863 178.300919,171.199463 
	C178.821777,170.656815 178.983475,170.391449 179.039993,170.061966 
	C179.039993,170.061966 179.212921,169.628052 179.576279,169.310883 
	C180.313538,168.358032 180.687439,167.722366 181.061356,167.086685 
	C182.841370,165.162109 184.621368,163.237518 187.034225,161.134659 
	C189.432785,159.955780 191.198502,158.955200 192.964233,157.954620 
z"/>
<path fill="#2C2D7E" opacity="1.000000" stroke="none" 
	d="
M320.236145,196.887253 
	C318.018890,196.500565 316.111053,196.105667 314.257843,195.533783 
	C313.339935,195.250534 312.351624,194.071732 311.687012,194.271103 
	C306.843933,195.723816 303.543152,195.332520 303.565704,189.059128 
	C303.568085,188.393341 301.251007,187.622177 299.938873,187.068344 
	C296.963226,185.812363 293.962616,184.608994 290.933533,183.488785 
	C289.292938,182.882065 287.546021,182.564941 285.899017,181.972702 
	C284.923126,181.621796 283.197418,180.681396 283.252655,180.528748 
	C284.624481,176.739365 285.671661,172.642471 287.979248,169.477020 
	C288.880188,168.241135 292.995758,168.353378 295.124359,169.186844 
	C302.723328,172.162277 310.287048,174.894974 318.620270,173.949234 
	C324.306641,173.303894 328.425476,175.805161 331.844238,180.397873 
	C328.136597,186.080231 324.352386,191.443130 320.236145,196.887253 
z"/>
<path fill="#D85A37" opacity="1.000000" stroke="none" 
	d="
M215.695404,115.951324 
	C215.644943,116.367203 215.594498,116.783089 215.090363,117.578079 
	C214.055786,119.564697 213.474884,121.172195 212.893982,122.779694 
	C212.814819,122.982094 212.735641,123.184486 212.343811,123.695236 
	C212.031158,124.003593 211.861710,124.443024 211.861710,124.443024 
	C206.533646,130.639496 200.015060,132.426529 192.356628,129.371033 
	C193.577438,127.926201 195.200699,127.035057 195.753769,125.700424 
	C196.405350,124.128136 196.870819,121.046715 196.136871,120.563316 
	C191.161057,117.286194 187.197418,111.959396 180.410278,112.033478 
	C180.136719,106.731689 182.655396,102.699921 186.901825,99.140320 
	C191.259720,101.224152 195.027145,103.252754 198.688782,105.457085 
	C204.395370,108.892494 210.030182,112.447182 215.695404,115.951324 
z"/>
<path fill="#D5CCCA" opacity="1.000000" stroke="none" 
	d="
M305.085236,247.003860 
	C301.482666,256.449249 297.880096,265.894684 293.865845,275.435486 
	C293.109283,274.473969 292.764465,273.417084 291.993469,271.053986 
	C289.736786,273.528473 287.680511,275.131531 286.478821,277.225159 
	C283.111633,283.091644 279.719635,288.997192 277.039215,295.191010 
	C273.669281,302.978058 270.995544,311.066406 268.021301,319.353607 
	C268.019104,320.121002 268.016937,320.559509 267.752869,321.173431 
	C266.661469,321.900055 265.831970,322.451263 265.001160,322.584503 
	C264.995453,320.772430 264.991028,319.378265 264.987671,317.653076 
	C264.991241,316.880615 264.993805,316.439240 265.359314,315.926575 
	C267.436890,311.854431 269.667358,307.989746 270.766846,303.826447 
	C273.757019,292.503357 275.777710,280.898438 282.484924,270.882965 
	C283.652100,269.140106 284.750549,266.898773 284.729370,264.899902 
	C284.672455,259.528870 287.999054,256.869141 291.965485,254.561340 
	C292.938354,253.995285 294.184570,253.898972 295.305145,253.586700 
	C294.740143,253.079651 294.175140,252.572586 293.610138,252.065521 
	C291.063354,250.688644 288.516541,249.311783 286.188660,247.684875 
	C287.270569,247.283646 288.133575,247.132462 289.236572,247.261780 
	C291.990784,248.022614 294.505005,248.502930 297.421967,248.985229 
	C300.244873,248.326096 302.665070,247.664978 305.085236,247.003860 
z"/>
<path fill="#DCD1CF" opacity="1.000000" stroke="none" 
	d="
M151.847672,341.130463 
	C146.306076,337.307617 146.762558,331.601715 147.242783,325.994659 
	C148.072342,316.308197 149.025406,306.631592 150.007935,296.959106 
	C151.505539,282.215790 153.072372,267.479523 155.178223,252.386871 
	C159.814774,254.053818 158.072311,258.119812 159.025909,261.243103 
	C159.525375,262.878967 160.320709,264.424469 160.952438,266.354309 
	C160.613815,267.798126 160.305145,268.898407 159.707336,270.290833 
	C158.946671,275.723175 158.475159,280.863403 158.003143,286.378052 
	C158.001984,287.501221 158.001343,288.250000 157.845917,289.349792 
	C156.795364,293.801788 155.899612,297.902710 155.002930,302.377991 
	C154.999176,303.501007 154.996353,304.249695 154.674805,305.171692 
	C153.571518,308.230804 152.786987,311.116638 152.001709,314.376831 
	C151.998734,315.499939 151.996490,316.248657 151.695465,317.154053 
	C149.922897,318.810486 148.976425,320.225555 151.942139,321.403809 
	C152.460739,328.358734 153.027359,334.914185 153.582901,341.341644 
	C153.486145,341.329865 152.666901,341.230164 151.847672,341.130463 
z"/>
<path fill="#C7C0BE" opacity="1.000000" stroke="none" 
	d="
M156.160156,232.953751 
	C156.759094,228.242584 157.358032,223.531433 158.385223,218.416931 
	C164.069641,218.421600 160.896713,222.212799 161.283875,224.452698 
	C162.650558,232.359650 163.749557,240.312469 165.021072,248.236511 
	C165.389496,250.532455 165.995850,252.790222 166.707977,256.048553 
	C168.689468,254.332458 169.745590,253.593964 170.585800,252.661011 
	C175.418457,247.294876 180.493225,242.104767 184.839508,236.365448 
	C186.357590,234.360825 186.333557,230.975952 186.446655,228.198303 
	C186.516022,226.494278 185.509445,224.746460 185.300354,223.162354 
	C188.078949,224.855392 190.543213,226.404373 192.839417,228.290726 
	C192.131683,229.638580 191.007568,230.741882 191.150864,231.643860 
	C191.874680,236.200516 188.881317,238.608521 186.196075,241.367203 
	C183.777481,243.851929 181.186096,246.343582 179.463486,249.294815 
	C175.676804,255.782257 172.416245,262.575500 168.879257,269.211090 
	C168.175186,270.531921 167.195740,271.705963 166.343277,272.947693 
	C165.699310,272.840393 165.055344,272.733093 164.411392,272.625793 
	C163.940994,266.712891 163.586121,260.787109 162.927124,254.895294 
	C162.738892,253.212433 161.668777,251.628189 161.002335,249.539154 
	C160.666077,244.841446 160.608521,240.551498 159.833679,236.395279 
	C159.585876,235.066010 157.438446,234.090897 156.160156,232.953751 
z"/>
<path fill="#E5E0DD" opacity="1.000000" stroke="none" 
	d="
M305.462341,246.906952 
	C302.665070,247.664978 300.244873,248.326096 297.338867,248.622330 
	C294.234192,247.832062 291.615387,247.406677 288.996552,246.981293 
	C288.133575,247.132462 287.270569,247.283646 285.824951,247.696198 
	C284.512543,247.958527 283.782837,247.959473 283.017639,247.667999 
	C282.657806,246.914383 282.333496,246.453171 281.808228,245.740372 
	C280.719452,244.950653 279.831604,244.412521 279.289978,243.876617 
	C280.777313,243.279190 281.918427,242.679565 283.448792,242.069031 
	C287.889893,241.557434 291.771973,240.800934 293.334045,235.956589 
	C297.107178,232.737625 295.917145,228.319534 290.875824,225.700272 
	C289.484833,224.611176 288.242859,223.806503 286.916748,222.666901 
	C284.881287,221.236618 282.929962,220.141266 280.780396,218.758545 
	C278.133881,217.265854 275.685547,216.060516 273.130676,214.554626 
	C272.334656,213.894485 271.645203,213.534882 270.610657,213.061768 
	C265.140808,210.988190 260.016083,209.028076 254.780457,206.803635 
	C254.690613,205.694839 254.711716,204.850403 254.732819,204.005951 
	C268.659851,210.174469 283.376404,214.727005 295.820099,223.937759 
	C302.634583,228.981796 307.724579,235.044510 306.932709,244.249695 
	C306.857178,245.128006 306.217346,245.957764 305.462341,246.906952 
z"/>
<path fill="#C4BAB7" opacity="1.000000" stroke="none" 
	d="
M184.986023,223.018280 
	C185.509445,224.746460 186.516022,226.494278 186.446655,228.198303 
	C186.333557,230.975952 186.357590,234.360825 184.839508,236.365448 
	C180.493225,242.104767 175.418457,247.294876 170.585800,252.661011 
	C169.745590,253.593964 168.689468,254.332458 166.707977,256.048553 
	C165.995850,252.790222 165.389496,250.532455 165.021072,248.236511 
	C163.749557,240.312469 162.650558,232.359650 161.283875,224.452698 
	C160.896713,222.212799 164.069641,218.421600 158.439362,218.002991 
	C158.366058,215.275436 158.666901,212.558487 159.328568,209.431671 
	C160.112457,209.026993 160.535492,209.032211 160.978973,209.019012 
	C160.999390,209.000610 160.962250,209.041245 160.961487,209.364868 
	C160.955963,210.120972 160.951233,210.553436 160.707291,211.198578 
	C160.986984,212.264526 161.505890,213.117828 162.265915,213.980560 
	C162.507050,213.990005 162.989166,214.012543 163.027802,214.347626 
	C164.380432,216.118271 165.694412,217.553818 166.638031,219.068634 
	C167.065811,225.416870 167.814499,231.693588 168.791534,237.934555 
	C168.846985,238.288879 171.039429,238.852509 171.782639,238.459335 
	C174.691895,236.920273 177.552155,235.212585 180.174011,233.228470 
	C182.625992,231.372910 182.448792,229.189362 180.413452,226.795425 
	C178.984680,225.114944 178.111206,222.962357 177.357269,221.051468 
	C179.156174,221.407104 180.587585,221.731873 182.232574,222.303070 
	C183.292801,222.705765 184.139404,222.862030 184.986023,223.018280 
z"/>
<path fill="#918FD7" opacity="1.000000" stroke="none" 
	d="
M284.971405,130.972061 
	C288.774048,130.325668 292.620178,128.956299 296.370422,129.181763 
	C304.446503,129.667328 312.566528,130.521957 320.476135,132.156677 
	C323.825195,132.848846 328.552887,135.272812 329.439117,137.967117 
	C332.606476,147.596436 334.395874,157.679016 336.274933,167.616089 
	C335.568695,167.418533 335.294098,167.194962 334.974548,166.614655 
	C332.963745,162.763824 330.632202,159.418442 329.133942,155.734161 
	C327.608704,151.983551 327.487823,147.596619 325.653503,144.057693 
	C324.205566,141.264252 321.447815,138.107559 318.638885,137.291992 
	C313.725677,135.865448 308.298126,136.312195 303.141998,135.580185 
	C300.273529,135.172913 297.516998,133.973267 294.711853,133.124756 
	C292.448517,132.440140 290.187866,131.746643 287.601929,131.064392 
	C286.847198,131.106506 286.416565,131.141312 285.733521,131.118896 
	C285.311249,131.031830 285.141327,131.001953 284.971405,130.972061 
z"/>
<path fill="#ED9678" opacity="1.000000" stroke="none" 
	d="
M215.966980,115.682350 
	C210.030182,112.447182 204.395370,108.892494 198.688782,105.457085 
	C195.027145,103.252754 191.259720,101.224152 187.204208,98.997055 
	C192.863297,91.030701 209.188705,92.769997 214.696487,104.929977 
	C216.097351,108.022758 215.771179,111.897774 215.966980,115.682350 
z"/>
<path fill="#F5DFA1" opacity="1.000000" stroke="none" 
	d="
M252.003876,179.972565 
	C251.843384,179.110062 251.682892,178.247574 251.259705,177.177994 
	C248.291504,171.661057 244.558807,167.503723 238.803024,165.291229 
	C237.187195,164.670120 235.982468,163.043274 234.482437,162.036789 
	C233.295044,161.240067 232.008194,160.352661 230.653137,160.093918 
	C227.730591,159.535828 224.743011,159.231537 221.768372,159.058563 
	C219.076538,158.902023 216.605011,158.944794 217.485611,154.959137 
	C217.570709,154.573990 215.249435,153.015976 214.148758,153.118134 
	C208.609924,153.632278 203.103424,154.502609 197.590820,155.284866 
	C196.616409,155.423141 195.666840,155.736588 194.298950,155.943390 
	C201.149734,150.453491 209.498169,149.314148 218.142670,150.405991 
	C234.994064,152.534393 246.510223,162.033691 253.593353,177.187759 
	C254.320297,178.742996 254.386551,180.607056 254.466736,182.505219 
	C253.450684,181.779282 252.727280,180.875916 252.003876,179.972565 
z"/>
<path fill="#E5E0DD" opacity="1.000000" stroke="none" 
	d="
M268.014801,320.998016 
	C268.016937,320.559509 268.019104,320.121002 268.365906,319.291016 
	C269.351044,318.183868 270.209625,317.569946 270.598206,316.736786 
	C274.441254,308.496490 278.448090,300.318726 281.887360,291.910065 
	C283.502716,287.960632 284.926544,288.878510 287.050964,291.058441 
	C281.575317,304.913361 276.099701,318.768280 270.171539,332.514893 
	C269.150940,328.603729 268.582886,324.800873 268.014801,320.998016 
z"/>
<path fill="#6B6ACB" opacity="1.000000" stroke="none" 
	d="
M335.019501,166.971390 
	C335.294098,167.194962 335.568695,167.418533 335.969482,167.879883 
	C336.053589,168.546066 336.011444,168.974442 335.615356,169.737518 
	C334.838837,170.390610 334.416290,170.709015 333.993713,171.027420 
	C333.556244,171.020477 333.118744,171.013535 332.287750,170.642578 
	C329.887177,169.247253 327.957733,167.554962 325.858521,167.308456 
	C319.543884,166.566956 313.156219,166.475372 306.809784,165.970001 
	C297.896606,165.260223 293.614380,161.327637 291.679443,152.637650 
	C291.116272,150.108429 289.793610,147.742722 289.283844,145.208588 
	C288.610474,141.860764 288.394623,138.420914 288.367432,135.016357 
	C293.424896,136.506302 292.325653,140.879257 292.900696,144.097351 
	C294.562500,153.396576 294.845215,159.935303 307.360138,161.175613 
	C312.393188,161.674408 317.368439,162.860657 322.333954,163.905273 
	C326.589172,164.800446 330.792969,165.939941 335.019501,166.971390 
z"/>
<path fill="#DCD1CF" opacity="1.000000" stroke="none" 
	d="
M267.752869,321.173431 
	C268.582886,324.800873 269.150940,328.603729 269.914154,332.746674 
	C266.584961,341.959747 263.268280,350.925140 259.390015,359.640625 
	C258.421631,361.816833 255.643280,363.187653 253.164459,364.731812 
	C251.578522,364.535004 250.524933,364.535004 249.913681,364.535004 
	C253.314972,357.443909 257.075531,350.640472 259.867584,343.460388 
	C262.171173,337.536438 263.328583,331.166748 264.995728,324.662598 
	C264.999146,323.887909 265.000793,323.445160 265.002441,323.002441 
	C265.831970,322.451263 266.661469,321.900055 267.752869,321.173431 
z"/>
<path fill="#D7A763" opacity="1.000000" stroke="none" 
	d="
M252.007233,180.393402 
	C252.727280,180.875916 253.450684,181.779282 254.365051,182.903107 
	C254.648865,189.816772 254.741714,196.509979 254.783691,203.604568 
	C254.711716,204.850403 254.690613,205.694839 254.626556,207.111252 
	C254.002411,209.423477 253.421204,211.163742 252.532013,212.961349 
	C251.780640,213.654999 251.337234,214.291306 250.554672,214.999390 
	C249.126923,217.013947 248.038330,218.956711 246.706940,220.917023 
	C246.464157,220.934540 245.980652,220.991837 245.646759,221.017670 
	C243.888184,222.363434 242.463486,223.683380 241.022278,225.002625 
	C241.005737,225.001938 241.003586,225.037613 240.627670,225.030197 
	C239.072159,225.537247 237.886734,226.038803 236.713943,226.568314 
	C229.472580,229.837738 221.950043,231.169785 214.301758,229.618378 
	C216.433517,228.915131 218.379471,228.661148 220.161606,227.979095 
	C222.199615,227.199112 224.091949,226.038544 226.375229,225.026184 
	C227.140549,225.004471 227.578201,224.999878 228.384186,224.998901 
	C231.512054,223.018234 234.271591,221.033951 237.390015,219.085419 
	C241.597931,220.057251 248.448822,215.416687 249.669235,210.015030 
	C251.439087,202.181656 255.146942,194.408020 251.975006,186.058929 
	C251.981598,185.885666 251.988190,185.712387 251.999847,185.279327 
	C252.006790,183.617767 252.008682,182.216019 252.007233,180.393402 
z"/>
<path fill="#CFC5C3" opacity="1.000000" stroke="none" 
	d="
M151.994263,316.997406 
	C151.996490,316.248657 151.998734,315.499939 152.370453,314.328003 
	C153.490814,312.831696 154.232132,311.751709 154.995468,310.687531 
	C155.646576,309.779755 156.322968,308.890137 156.991470,308.328064 
	C156.998535,309.111084 157.002319,309.558533 157.006104,310.006012 
	C156.426315,313.898895 155.644196,317.774567 155.311310,321.688446 
	C154.724014,328.593353 155.347900,334.631805 159.828781,341.097534 
	C164.772476,348.231110 170.742950,352.241333 178.272797,355.169403 
	C179.111847,355.495697 179.434845,357.149109 180.002136,358.581116 
	C169.490005,355.178101 159.102539,351.170013 151.931824,341.458466 
	C152.666901,341.230164 153.486145,341.329865 153.582901,341.341644 
	C153.027359,334.914185 152.460739,328.358734 152.201553,321.190918 
	C152.337402,319.384827 152.165833,318.191101 151.994263,316.997406 
z"/>
<path fill="#5756BB" opacity="1.000000" stroke="none" 
	d="
M287.982117,135.020615 
	C288.394623,138.420914 288.610474,141.860764 289.283844,145.208588 
	C289.793610,147.742722 291.116272,150.108429 291.679443,152.637650 
	C293.614380,161.327637 297.896606,165.260223 306.809784,165.970001 
	C313.156219,166.475372 319.543884,166.566956 325.858521,167.308456 
	C327.957733,167.554962 329.887177,169.247253 331.959839,170.629364 
	C321.401428,169.618866 310.705719,168.653229 300.180756,166.745438 
	C294.027740,165.630112 290.373016,161.634354 288.638153,154.855988 
	C287.001587,148.461884 287.533356,140.777542 280.876892,135.911774 
	C281.471130,134.532761 282.382111,133.356781 283.882446,132.056641 
	C284.976501,131.680359 285.481201,131.428223 285.985901,131.176102 
	C286.416565,131.141312 286.847198,131.106506 287.609375,131.425720 
	C287.933472,132.505280 287.926025,133.230850 287.752258,134.059601 
	C287.717316,134.446213 287.848663,134.729660 287.986938,135.008850 
	C287.993866,135.004578 287.982117,135.020615 287.982117,135.020615 
z"/>
<path fill="#DCD1CF" opacity="1.000000" stroke="none" 
	d="
M287.324493,290.834351 
	C284.926544,288.878510 283.502716,287.960632 281.887360,291.910065 
	C278.448090,300.318726 274.441254,308.496490 270.598206,316.736786 
	C270.209625,317.569946 269.351044,318.183868 268.365967,318.962128 
	C270.995544,311.066406 273.669281,302.978058 277.039215,295.191010 
	C279.719635,288.997192 283.111633,283.091644 286.478821,277.225159 
	C287.680511,275.131531 289.736786,273.528473 291.993469,271.053986 
	C292.764465,273.417084 293.109283,274.473969 293.711090,275.754395 
	C291.844727,280.855316 289.721405,285.732788 287.324493,290.834351 
z"/>
<path fill="#9E4C42" opacity="1.000000" stroke="none" 
	d="
M180.322067,112.378387 
	C187.197418,111.959396 191.161057,117.286194 196.136871,120.563316 
	C196.870819,121.046715 196.405350,124.128136 195.753769,125.700424 
	C195.200699,127.035057 193.577438,127.926201 192.059082,129.122620 
	C185.866669,127.489418 182.720779,123.239632 180.916626,117.221390 
	C180.891968,116.526299 180.829880,116.354645 180.726624,116.197861 
	C180.562378,115.039673 180.398117,113.881485 180.322067,112.378387 
z"/>
<path fill="#D5CCCA" opacity="1.000000" stroke="none" 
	d="
M264.993896,324.994598 
	C263.328583,331.166748 262.171173,337.536438 259.867584,343.460388 
	C257.075531,350.640472 253.314972,357.443909 249.913681,364.535004 
	C250.524933,364.535004 251.578522,364.535004 252.820480,364.771484 
	C249.262543,366.320587 245.516235,367.633209 241.368561,368.919617 
	C243.543106,365.135315 246.119034,361.377258 249.206635,357.268005 
	C250.734451,355.720154 252.138748,354.682251 252.703430,353.301056 
	C256.229340,344.676605 259.539337,335.964050 263.010498,327.316711 
	C263.369843,326.421509 264.318604,325.762939 264.993896,324.994598 
z"/>
<path fill="#5756BB" opacity="1.000000" stroke="none" 
	d="
M274.910034,190.512207 
	C276.530884,190.131485 278.711334,189.378143 279.846863,190.154022 
	C285.605865,194.089172 292.224762,194.096115 298.683380,195.153137 
	C302.713867,195.812759 306.594635,197.386993 310.767273,198.829498 
	C301.010529,197.965561 290.991028,197.063721 281.076996,195.495163 
	C278.857544,195.144012 277.007690,192.456635 274.910034,190.512207 
z"/>
<path fill="#D5CCCA" opacity="1.000000" stroke="none" 
	d="
M156.097061,233.403931 
	C157.438446,234.090897 159.585876,235.066010 159.833679,236.395279 
	C160.608521,240.551498 160.666077,244.841446 160.992004,249.940063 
	C160.975403,253.507874 160.963364,256.215179 160.962967,258.922516 
	C160.962631,261.285278 160.975418,263.648041 160.982407,266.010803 
	C160.320709,264.424469 159.525375,262.878967 159.025909,261.243103 
	C158.072311,258.119812 159.814774,254.053818 155.342926,252.025421 
	C155.304123,245.962936 155.669052,239.908524 156.097061,233.403931 
z"/>
<path fill="#E5E0DD" opacity="1.000000" stroke="none" 
	d="
M160.018555,205.021118 
	C161.525009,199.833405 165.872772,198.375595 170.776520,197.307953 
	C171.172562,197.488190 171.187073,197.842987 171.123505,198.260651 
	C172.096405,201.028717 167.576767,204.077957 171.991486,206.420410 
	C172.058716,208.221420 172.115936,209.606689 171.895874,211.166962 
	C171.000854,212.421143 170.383102,213.500336 169.939194,214.275864 
	C166.753052,212.417953 163.857651,210.729599 160.962250,209.041245 
	C160.962250,209.041245 160.999390,209.000610 160.993896,208.651001 
	C160.665131,207.207977 160.341843,206.114548 160.018555,205.021118 
z"/>
<path fill="#DCB3AA" opacity="1.000000" stroke="none" 
	d="
M176.505219,174.047913 
	C176.318970,175.415268 175.811584,176.895416 175.156006,179.071136 
	C174.911713,180.489349 174.815613,181.211990 174.545654,182.080780 
	C174.175156,182.496063 174.126373,182.789856 174.128540,183.340637 
	C173.783234,183.794006 173.534821,184.015045 173.215042,184.178665 
	C173.143677,184.121246 172.997650,184.010605 172.997650,184.010605 
	C174.059799,180.727310 175.121948,177.444000 176.505219,174.047913 
z"/>
<path fill="#C7C0BE" opacity="1.000000" stroke="none" 
	d="
M217.296432,368.252136 
	C219.610168,368.039795 222.211960,368.099060 224.909637,368.521057 
	C222.531860,368.763763 220.058167,368.643738 217.296432,368.252136 
z"/>
<path fill="#DCB3AA" opacity="1.000000" stroke="none" 
	d="
M171.187073,197.842987 
	C171.187073,197.842987 171.172562,197.488190 171.150696,197.313904 
	C171.574524,192.941254 172.020218,188.742905 172.731781,184.277573 
	C172.997650,184.010605 173.143677,184.121246 173.142944,184.556580 
	C173.141495,186.019516 173.140762,187.047104 172.810852,188.310257 
	C172.382492,191.643829 172.283295,194.741821 171.934265,197.861542 
	C171.684464,197.883255 171.187073,197.842987 171.187073,197.842987 
z"/>
<path fill="#F5DFA1" opacity="1.000000" stroke="none" 
	d="
M192.979507,157.655884 
	C191.198502,158.955200 189.432785,159.955780 187.323242,160.970551 
	C188.774567,159.377960 190.569687,157.771194 192.720276,156.165253 
	C193.048752,156.563110 193.021774,156.960129 192.979507,157.655884 
z"/>
<path fill="#ED9678" opacity="1.000000" stroke="none" 
	d="
M213.191437,122.642166 
	C213.474884,121.172195 214.055786,119.564697 214.934799,117.852913 
	C214.651581,119.333969 214.070236,120.919304 213.191437,122.642166 
z"/>
<path fill="#DCD1CF" opacity="1.000000" stroke="none" 
	d="
M159.870819,205.338654 
	C160.341843,206.114548 160.665131,207.207977 160.973480,208.669418 
	C160.535492,209.032211 160.112457,209.026993 159.372528,209.028442 
	C159.278137,207.908783 159.500610,206.782471 159.870819,205.338654 
z"/>
<path fill="#5756BB" opacity="1.000000" stroke="none" 
	d="
M313.204041,199.313889 
	C313.760284,199.004547 314.509003,198.850082 315.502472,198.816437 
	C314.963654,199.114426 314.180115,199.291595 313.204041,199.313889 
z"/>
<path fill="#F5DFA1" opacity="1.000000" stroke="none" 
	d="
M180.729523,167.105835 
	C180.687439,167.722366 180.313538,168.358032 179.673248,169.098419 
	C179.737137,168.510406 180.067413,167.817688 180.729523,167.105835 
z"/>
<path fill="#5756BB" opacity="1.000000" stroke="none" 
	d="
M334.138611,171.262589 
	C334.416290,170.709015 334.838837,170.390610 335.539246,170.051392 
	C335.861084,170.481552 335.905060,170.932526 335.877838,171.717453 
	C335.298950,171.866867 334.791199,171.682312 334.138611,171.262589 
z"/>
<path fill="#6B6ACB" opacity="1.000000" stroke="none" 
	d="
M285.733521,131.118896 
	C285.481201,131.428223 284.976501,131.680359 284.176147,131.917511 
	C284.086578,131.649231 284.292603,131.395935 284.735046,131.057343 
	C285.141327,131.001953 285.311249,131.031830 285.733521,131.118896 
z"/>
<path fill="#5756BB" opacity="1.000000" stroke="none" 
	d="
M335.047852,175.562042 
	C334.930756,175.298264 334.973297,174.891663 335.128265,174.315063 
	C335.229614,174.569794 335.218536,174.994507 335.047852,175.562042 
z"/>
<path fill="#D85A37" opacity="1.000000" stroke="none" 
	d="
M180.664093,116.337379 
	C180.829880,116.354645 180.891968,116.526299 180.906418,116.848137 
	C180.709946,116.867897 180.610474,116.699051 180.664093,116.337379 
z"/>
<path fill="#ED9678" opacity="1.000000" stroke="none" 
	d="
M212.030823,124.454819 
	C211.861710,124.443024 212.031158,124.003593 212.136887,123.947159 
	C212.242615,123.890717 212.396149,124.191917 212.396149,124.191917 
	C212.396149,124.191917 212.199951,124.466614 212.030823,124.454819 
z"/>
<path fill="#F5DFA1" opacity="1.000000" stroke="none" 
	d="
M178.804916,170.141846 
	C178.983475,170.391449 178.821777,170.656815 178.343567,170.965118 
	C178.121429,170.708069 178.267303,170.424591 178.804916,170.141846 
z"/>
<path fill="#D5CCCA" opacity="1.000000" stroke="none" 
	d="
M196.990768,272.029297 
	C195.890686,272.332794 194.790604,272.636261 193.133224,272.691925 
	C190.579117,272.289215 188.582809,272.127594 186.585342,271.981567 
	C184.780029,271.849609 182.063385,272.410370 181.363113,271.467102 
	C180.039322,269.683990 178.810349,266.709045 179.402649,264.809601 
	C182.856796,253.732117 189.200623,244.671234 198.829666,239.333008 
	C198.546341,236.290604 198.298431,233.628647 198.466888,230.967270 
	C202.601410,231.957520 206.319580,232.947205 209.784424,234.222046 
	C207.782135,234.913788 206.033173,235.320389 202.945892,236.038132 
	C205.531311,237.379364 206.990982,237.819702 208.006180,238.746780 
	C209.166931,239.806763 210.641144,241.304047 210.632858,242.602753 
	C210.626831,243.545837 208.437012,244.481384 207.212463,245.409149 
	C202.952652,248.636520 198.469711,251.619095 194.543045,255.210236 
	C193.118912,256.512695 193.020935,259.265198 192.317841,261.356079 
	C194.684875,262.021698 197.094070,263.368347 199.411041,263.224976 
	C206.313080,262.797852 213.164810,261.403290 220.064301,261.148865 
	C224.037735,261.002350 228.046036,262.521545 232.075211,262.932007 
	C235.116241,263.241791 238.220520,262.865784 241.287247,263.003693 
	C245.859177,263.209320 247.609375,261.328796 248.114349,256.713440 
	C248.414185,253.973267 249.890015,251.369003 250.772629,248.682449 
	C251.244797,247.245224 251.580338,245.763107 252.026520,244.121033 
	C256.342133,244.742859 260.670013,245.366455 264.841339,246.305008 
	C259.979919,251.533249 261.616547,256.483215 264.355408,261.644623 
	C266.454132,265.599640 264.969910,268.806824 260.876282,270.563538 
	C258.521729,271.573975 256.282562,272.853363 253.593491,274.010193 
	C252.135010,274.013580 251.074524,274.018494 249.613159,273.967590 
	C246.454269,273.418579 243.632767,273.150757 240.948822,272.394623 
	C226.314728,268.271881 211.684509,267.300507 196.990768,272.029297 
z"/>
<path fill="#DCB3AA" opacity="1.000000" stroke="none" 
	d="
M197.030640,272.375885 
	C211.684509,267.300507 226.314728,268.271881 240.948822,272.394623 
	C243.632767,273.150757 246.454269,273.418579 249.615997,274.360535 
	C250.860260,278.606445 250.886307,282.860352 255.897522,284.126038 
	C256.641663,284.314026 257.105133,285.606171 257.702301,286.384521 
	C263.882874,294.440765 261.072845,303.302399 259.622437,312.003967 
	C258.493347,311.994324 257.740570,311.989227 256.989655,311.533356 
	C256.664459,304.230164 257.524811,296.962280 250.498947,291.670990 
	C249.541092,293.747833 248.889389,295.160858 248.153564,296.756226 
	C243.274155,293.803772 238.787155,290.338013 233.733490,288.232056 
	C228.156723,285.908112 222.117767,284.568024 216.177429,283.269043 
	C205.419434,280.916656 194.955917,281.975525 184.758606,287.087402 
	C184.001358,287.448700 183.505264,287.706360 182.985229,287.647400 
	C182.643173,286.550446 182.325073,285.770142 182.006958,284.989807 
	C186.227707,282.642670 190.375809,280.149170 194.697342,278.005188 
	C197.158615,276.784088 198.357254,275.423523 197.030640,272.375885 
z"/>
<path fill="#CFC5C3" opacity="1.000000" stroke="none" 
	d="
M198.050522,230.966705 
	C198.298431,233.628647 198.546341,236.290604 198.829666,239.333008 
	C189.200623,244.671234 182.856796,253.732117 179.402649,264.809601 
	C178.810349,266.709045 180.039322,269.683990 181.363113,271.467102 
	C182.063385,272.410370 184.780029,271.849609 186.585342,271.981567 
	C188.582809,272.127594 190.579117,272.289215 192.789490,272.726257 
	C189.873123,274.907440 186.743195,276.806396 182.924957,278.900482 
	C177.763992,279.740570 173.226990,280.116699 168.850693,281.164276 
	C167.127838,281.576721 164.983032,283.194702 164.388168,284.774872 
	C162.824417,288.928650 162.204330,293.427765 160.822662,297.663483 
	C159.880585,300.551666 158.289307,303.228058 156.730911,305.890442 
	C155.980194,305.520630 155.486862,305.259521 154.993530,304.998413 
	C154.996353,304.249695 154.999176,303.501007 155.364868,302.307892 
	C157.025543,297.886902 158.340668,293.915527 159.547394,289.911499 
	C159.588547,289.775024 158.540878,289.310425 158.000702,288.998779 
	C158.001343,288.250000 158.001984,287.501221 158.378647,286.296143 
	C161.351334,280.730591 161.942627,275.464111 159.996490,269.998718 
	C160.305145,268.898407 160.613815,267.798126 160.952438,266.354309 
	C160.975418,263.648041 160.962631,261.285278 160.962967,258.922516 
	C160.963364,256.215179 160.975403,253.507874 160.992706,250.399643 
	C161.668777,251.628189 162.738892,253.212433 162.927124,254.895294 
	C163.586121,260.787109 163.940994,266.712891 164.411392,272.625793 
	C165.055344,272.733093 165.699310,272.840393 166.343277,272.947693 
	C167.195740,271.705963 168.175186,270.531921 168.879257,269.211090 
	C172.416245,262.575500 175.676804,255.782257 179.463486,249.294815 
	C181.186096,246.343582 183.777481,243.851929 186.196075,241.367203 
	C188.881317,238.608521 191.874680,236.200516 191.150864,231.643860 
	C191.007568,230.741882 192.131683,229.638580 193.196747,228.337357 
	C195.164963,229.019974 196.607742,229.993347 198.050522,230.966705 
z"/>
<path fill="#CFC5C3" opacity="1.000000" stroke="none" 
	d="
M209.430695,358.007141 
	C204.101181,356.637695 199.079071,355.588806 194.327957,353.814392 
	C188.372177,351.590088 182.456009,349.106842 176.880203,346.077454 
	C173.709961,344.355042 171.839722,340.942230 173.573807,337.086334 
	C175.226517,333.411469 178.395935,333.513977 181.667358,334.739441 
	C190.061676,337.884003 198.398529,341.192566 206.864090,344.130859 
	C209.931076,345.195312 213.303650,345.367889 216.527283,345.996124 
	C219.122086,346.501770 221.726089,346.989929 224.283310,347.650940 
	C227.262939,348.421112 230.348526,349.367737 229.664047,353.441650 
	C229.083542,356.896698 224.943558,359.425385 221.209839,358.864807 
	C219.416321,358.595520 217.627960,358.292023 215.413788,358.008118 
	C213.279678,358.010010 211.569016,358.007812 209.430695,358.007141 
z"/>
<path fill="#C7C0BE" opacity="1.000000" stroke="none" 
	d="
M156.988297,305.999146 
	C158.289307,303.228058 159.880585,300.551666 160.822662,297.663483 
	C162.204330,293.427765 162.824417,288.928650 164.388168,284.774872 
	C164.983032,283.194702 167.127838,281.576721 168.850693,281.164276 
	C173.226990,280.116699 177.763992,279.740570 182.621094,279.053497 
	C182.493530,280.015656 182.244995,281.396240 181.429581,281.966980 
	C171.301407,289.056183 164.335648,298.740601 158.531006,309.416260 
	C158.399979,309.657227 157.976364,309.739105 157.347656,309.950592 
	C157.002319,309.558533 156.998535,309.111084 156.993637,307.995911 
	C156.991119,306.885223 156.989700,306.442169 156.988297,305.999146 
z"/>
<path fill="#BBB1AE" opacity="1.000000" stroke="none" 
	d="
M181.705292,285.142029 
	C182.325073,285.770142 182.643173,286.550446 182.785629,287.928070 
	C177.123169,294.092163 173.846924,300.617432 174.761658,308.590179 
	C176.023148,319.585236 185.081467,323.832611 192.994995,329.339386 
	C192.997955,330.114838 192.998856,330.558014 192.599609,331.002136 
	C191.132339,331.003662 190.065216,331.004242 188.998077,331.004822 
	C188.998077,331.004822 188.501007,331.000305 188.252533,330.997711 
	C184.913254,328.256439 182.223572,324.666779 178.638412,322.976898 
	C173.149139,320.389526 171.683884,315.982971 171.046005,310.893616 
	C169.743057,300.498138 173.984848,292.223907 181.705292,285.142029 
z"/>
<path fill="#C4BAB7" opacity="1.000000" stroke="none" 
	d="
M259.998779,312.008545 
	C261.072845,303.302399 263.882874,294.440765 257.702301,286.384521 
	C257.105133,285.606171 256.641663,284.314026 255.897522,284.126038 
	C250.886307,282.860352 250.860260,278.606445 250.016876,274.416351 
	C251.074524,274.018494 252.135010,274.013580 253.633728,274.358459 
	C255.939362,276.249634 257.593323,278.233154 259.711212,279.255768 
	C268.797302,283.643005 268.688080,289.229858 267.559875,296.872192 
	C266.620575,303.234894 265.844635,309.621704 264.996338,315.997833 
	C264.993805,316.439240 264.991241,316.880615 264.655914,317.656311 
	C263.880463,317.993195 263.437775,317.995758 262.639130,318.060272 
	C261.522919,320.081024 260.762665,322.039795 260.001221,323.999298 
	C260.000000,324.000000 259.998779,324.002441 259.998779,324.002441 
	C259.553802,324.001129 259.108826,323.999817 258.336487,323.601196 
	C258.672333,319.472076 259.335571,315.740326 259.998779,312.008545 
z"/>
<path fill="#BBB1AE" opacity="1.000000" stroke="none" 
	d="
M259.622437,312.003967 
	C259.335571,315.740326 258.672333,319.472076 258.002747,323.600708 
	C256.998169,326.415527 255.999939,328.833496 254.645538,331.662476 
	C252.795441,333.730286 251.209961,335.314301 249.823883,337.056915 
	C244.576660,343.653900 237.304504,343.358978 229.996506,343.006104 
	C228.930923,343.003326 227.865356,343.000580 226.164825,342.728455 
	C224.352142,342.307709 223.174393,342.156281 221.996658,342.004883 
	C220.931198,342.002228 219.865723,341.999542 218.184937,341.733459 
	C216.045120,340.982086 214.520630,340.494110 212.996155,340.006104 
	C212.996155,340.006104 212.985397,339.512268 213.326599,339.254791 
	C214.126129,338.982574 214.584442,338.967865 215.466248,338.961700 
	C217.592422,338.971558 219.295120,338.972839 221.291443,339.271881 
	C224.720474,339.712067 227.863998,339.755981 230.989868,340.013885 
	C244.719269,341.146881 255.237167,329.728577 254.357742,316.952393 
	C255.477814,315.263428 256.232819,313.623779 256.987793,311.984131 
	C257.740570,311.989227 258.493347,311.994324 259.622437,312.003967 
z"/>
<path fill="#CFC5C3" opacity="1.000000" stroke="none" 
	d="
M262.995117,317.998322 
	C263.437775,317.995758 263.880463,317.993195 264.654846,317.987366 
	C264.991028,319.378265 264.995453,320.772430 265.001160,322.584503 
	C265.000793,323.445160 264.999146,323.887909 264.995728,324.662598 
	C264.318604,325.762939 263.369843,326.421509 263.010498,327.316711 
	C259.539337,335.964050 256.229340,344.676605 252.703430,353.301056 
	C252.138748,354.682251 250.734451,355.720154 249.361572,356.960205 
	C250.516281,352.700897 252.041702,348.402985 253.534790,344.093842 
	C254.710785,340.699829 255.856003,337.295044 256.998047,333.889404 
	C258.010864,330.869019 259.000488,327.840851 259.999573,324.409271 
	C259.998779,324.002441 260.000000,324.000000 260.357483,323.938416 
	C261.475037,321.917297 262.235077,319.957825 262.995117,317.998322 
z"/>
<path fill="#C4BAB7" opacity="1.000000" stroke="none" 
	d="
M230.077759,343.377563 
	C237.304504,343.358978 244.576660,343.653900 249.823883,337.056915 
	C251.209961,335.314301 252.795441,333.730286 254.639175,332.030823 
	C252.664337,336.389832 250.986115,340.847809 246.402679,344.113068 
	C240.363373,348.415588 235.506134,345.541565 230.077759,343.377563 
z"/>
<path fill="#C4BAB7" opacity="1.000000" stroke="none" 
	d="
M206.996765,339.001221 
	C205.051102,338.582123 203.105423,338.163055 201.079910,337.039673 
	C201.000916,335.894653 201.001755,335.453918 201.336761,335.011963 
	C202.116608,335.004669 202.562302,334.998566 203.376160,334.999939 
	C204.480713,335.021027 205.217102,335.034607 205.963715,335.373566 
	C205.982010,336.133392 205.990082,336.567810 206.105896,337.260681 
	C206.474670,338.013153 206.735718,338.507172 206.996765,339.001221 
z"/>
<path fill="#BBB1AE" opacity="1.000000" stroke="none" 
	d="
M201.002594,335.013184 
	C201.001755,335.453918 201.000916,335.894653 201.000031,336.665863 
	C199.572556,336.334320 198.145111,335.672302 196.334183,334.684601 
	C195.632980,333.573425 195.315277,332.787933 195.374268,332.001404 
	C196.504349,331.997345 197.257690,331.994324 198.338242,331.998383 
	C199.101685,332.019592 199.537918,332.033691 200.007385,332.362122 
	C200.361282,333.455353 200.681946,334.234283 201.002594,335.013184 
z"/>
<path fill="#C4BAB7" opacity="1.000000" stroke="none" 
	d="
M194.997559,332.002441 
	C195.315277,332.787933 195.632980,333.573425 195.978149,334.677002 
	C193.713379,333.897766 191.421173,332.800415 189.063522,331.353943 
	C190.065216,331.004242 191.132339,331.003662 192.770752,331.242798 
	C193.893860,331.655853 194.445709,331.829132 194.997559,332.002441 
z"/>
<path fill="#BBB1AE" opacity="1.000000" stroke="none" 
	d="
M207.305878,339.133240 
	C206.735718,338.507172 206.474670,338.013153 206.444733,337.258331 
	C207.127884,336.987946 207.579895,336.978333 208.403351,336.971558 
	C209.517746,336.981293 210.260696,336.988190 211.107605,337.256775 
	C211.472321,338.015869 211.733109,338.513367 211.993896,339.010834 
	C210.534256,339.095642 209.074615,339.180450 207.305878,339.133240 
z"/>
<path fill="#C4BAB7" opacity="1.000000" stroke="none" 
	d="
M213.050873,340.343994 
	C214.520630,340.494110 216.045120,340.982086 217.785400,341.732300 
	C216.369324,341.557007 214.737473,341.119415 213.050873,340.343994 
z"/>
<path fill="#C4BAB7" opacity="1.000000" stroke="none" 
	d="
M222.056335,342.344025 
	C223.174393,342.156281 224.352142,342.307709 225.765244,342.727661 
	C224.705750,342.891876 223.410873,342.787506 222.056335,342.344025 
z"/>
<path fill="#B5A8A2" opacity="1.000000" stroke="none" 
	d="
M212.240265,339.012512 
	C211.733109,338.513367 211.472321,338.015869 211.481354,337.256500 
	C212.848389,337.647430 213.945572,338.300293 215.042770,338.953125 
	C214.584442,338.967865 214.126129,338.982574 213.323578,339.007843 
	C212.979340,339.018372 212.486618,339.014160 212.240265,339.012512 
z"/>
<path fill="#DDA740" opacity="1.000000" stroke="none" 
	d="
M174.719528,181.934616 
	C174.815613,181.211990 174.911713,180.489349 175.079285,179.409729 
	C177.993973,179.748734 181.126053,179.900482 183.632584,181.230820 
	C197.778641,188.738831 211.701828,196.667435 225.863876,204.144180 
	C230.371506,206.523941 235.305710,208.609726 240.585388,205.760513 
	C240.997620,205.538055 241.679169,205.293106 241.987411,205.476227 
	C248.554031,209.377487 246.340149,203.795532 247.051193,200.983307 
	C248.290359,196.082397 249.868195,191.267090 251.639526,186.237427 
	C255.146942,194.408020 251.439087,202.181656 249.669235,210.015030 
	C248.448822,215.416687 241.597931,220.057251 237.373230,218.699951 
	C235.986099,216.904114 235.263138,215.014206 233.907135,214.255142 
	C230.358780,212.268860 226.374054,211.055634 222.848419,209.036392 
	C211.144913,202.333511 199.616562,195.324768 187.912415,188.623062 
	C184.102448,186.441498 179.959183,184.842056 175.826996,182.734467 
	C175.363602,182.306595 175.041565,182.120605 174.719528,181.934616 
z"/>
<path fill="#CFC5C3" opacity="1.000000" stroke="none" 
	d="
M265.359314,315.926575 
	C265.844635,309.621704 266.620575,303.234894 267.559875,296.872192 
	C268.688080,289.229858 268.797302,283.643005 259.711212,279.255768 
	C257.593323,278.233154 255.939362,276.249634 254.031723,274.359985 
	C256.282562,272.853363 258.521729,271.573975 260.876282,270.563538 
	C264.969910,268.806824 266.454132,265.599640 264.355408,261.644623 
	C261.616547,256.483215 259.979919,251.533249 265.290527,246.307449 
	C270.930786,246.331223 275.965363,246.667542 281.175079,247.248505 
	C281.917847,247.648926 282.485474,247.804672 283.053101,247.960419 
	C283.782837,247.959473 284.512543,247.958527 285.606018,247.946243 
	C288.516541,249.311783 291.063354,250.688644 293.610138,252.065521 
	C294.175140,252.572586 294.740143,253.079651 295.305145,253.586700 
	C294.184570,253.898972 292.938354,253.995285 291.965485,254.561340 
	C287.999054,256.869141 284.672455,259.528870 284.729370,264.899902 
	C284.750549,266.898773 283.652100,269.140106 282.484924,270.882965 
	C275.777710,280.898438 273.757019,292.503357 270.766846,303.826447 
	C269.667358,307.989746 267.436890,311.854431 265.359314,315.926575 
z"/>
<path fill="#DCD1CF" opacity="1.000000" stroke="none" 
	d="
M289.236572,247.261780 
	C291.615387,247.406677 294.234192,247.832062 296.936127,248.620361 
	C294.505005,248.502930 291.990784,248.022614 289.236572,247.261780 
z"/>
<path fill="#D5CCCA" opacity="1.000000" stroke="none" 
	d="
M159.707336,270.290833 
	C161.942627,275.464111 161.351334,280.730591 158.379166,285.921753 
	C158.475159,280.863403 158.946671,275.723175 159.707336,270.290833 
z"/>
<path fill="#D5CCCA" opacity="1.000000" stroke="none" 
	d="
M157.845917,289.349792 
	C158.540878,289.310425 159.588547,289.775024 159.547394,289.911499 
	C158.340668,293.915527 157.025543,297.886902 155.365784,301.933563 
	C155.899612,297.902710 156.795364,293.801788 157.845917,289.349792 
z"/>
<path fill="#D5CCCA" opacity="1.000000" stroke="none" 
	d="
M156.730896,305.890442 
	C156.989700,306.442169 156.991119,306.885223 156.990356,307.660370 
	C156.322968,308.890137 155.646576,309.779755 154.995468,310.687531 
	C154.232132,311.751709 153.490814,312.831696 152.371185,313.953613 
	C152.786987,311.116638 153.571518,308.230804 154.674789,305.171692 
	C155.486862,305.259521 155.980194,305.520630 156.730896,305.890442 
z"/>
<path fill="#D5CCCA" opacity="1.000000" stroke="none" 
	d="
M151.695465,317.154053 
	C152.165833,318.191101 152.337402,319.384827 152.249573,320.791443 
	C148.976425,320.225555 149.922897,318.810486 151.695465,317.154053 
z"/>
<path fill="#DCB3AA" opacity="1.000000" stroke="none" 
	d="
M198.466888,230.967270 
	C196.607742,229.993347 195.164963,229.019974 193.364838,227.999969 
	C190.543213,226.404373 188.078949,224.855392 185.300354,223.162354 
	C184.139404,222.862030 183.292801,222.705765 182.202347,221.941055 
	C181.672394,220.179642 181.386276,219.026657 181.444336,217.930450 
	C188.857880,221.361053 195.927216,224.734909 203.213745,228.368469 
	C205.284729,228.778961 207.138519,228.929733 209.355865,229.126404 
	C211.160812,229.407684 212.602188,229.643112 214.043579,229.878525 
	C221.950043,231.169785 229.472580,229.837738 236.713943,226.568314 
	C237.886734,226.038803 239.072159,225.537247 240.593201,225.368591 
	C240.276215,227.134689 239.617783,228.554977 238.569778,229.979187 
	C234.187485,231.307526 230.173401,232.573654 226.225494,234.020370 
	C225.645569,234.232880 225.379913,235.302979 224.634460,236.009552 
	C223.230682,236.341248 222.161285,236.639664 221.058258,236.555344 
	C219.712646,235.478790 218.468521,234.490402 217.070877,234.168396 
	C215.454895,233.796051 213.703705,234.010529 211.682037,233.964172 
	C210.914474,233.951050 210.476105,233.943954 210.037750,233.936890 
	C206.319580,232.947205 202.601410,231.957520 198.466888,230.967270 
z"/>
<path fill="#DCD1CF" opacity="1.000000" stroke="none" 
	d="
M221.091904,236.938080 
	C222.161285,236.639664 223.230682,236.341248 225.011948,236.065186 
	C232.812607,237.732101 239.901382,239.376633 246.994507,241.384216 
	C247.223129,242.691986 247.447388,243.636719 247.671646,244.581451 
	C247.932632,244.564896 248.193604,244.548340 248.454575,244.531784 
	C248.636276,243.682266 248.817963,242.832748 249.335373,241.985535 
	C250.118744,241.977676 250.566376,241.967514 251.452667,241.968552 
	C258.260864,242.319427 264.630432,242.659103 271.418304,243.003235 
	C274.205658,243.296600 276.574707,243.585495 278.943756,243.874405 
	C279.831604,244.412521 280.719452,244.950653 281.589355,245.853333 
	C281.297302,246.419083 281.106812,246.681076 280.999939,247.003860 
	C275.965363,246.667542 270.930786,246.331223 265.447021,245.992477 
	C260.670013,245.366455 256.342133,244.742859 252.026520,244.121033 
	C251.580338,245.763107 251.244797,247.245224 250.772629,248.682449 
	C249.890015,251.369003 248.414185,253.973267 248.114349,256.713440 
	C247.609375,261.328796 245.859177,263.209320 241.287247,263.003693 
	C238.220520,262.865784 235.116241,263.241791 232.075211,262.932007 
	C228.046036,262.521545 224.037735,261.002350 220.064301,261.148865 
	C213.164810,261.403290 206.313080,262.797852 199.411041,263.224976 
	C197.094070,263.368347 194.684875,262.021698 192.317841,261.356079 
	C193.020935,259.265198 193.118912,256.512695 194.543045,255.210236 
	C198.469711,251.619095 202.952652,248.636520 207.212463,245.409149 
	C208.437012,244.481384 210.626831,243.545837 210.632858,242.602753 
	C210.641144,241.304047 209.166931,239.806763 208.006180,238.746780 
	C206.990982,237.819702 205.531311,237.379364 202.945892,236.038132 
	C206.033173,235.320389 207.782135,234.913788 209.784424,234.222031 
	C210.476105,233.943954 210.914474,233.951050 211.745819,234.332855 
	C215.123169,235.451080 218.107529,236.194580 221.091904,236.938080 
z"/>
<path fill="#BBB1AE" opacity="1.000000" stroke="none" 
	d="
M279.289978,243.876617 
	C276.574707,243.585495 274.205658,243.296600 271.365356,242.663757 
	C269.241333,241.035400 267.493591,239.855042 265.952393,238.448395 
	C259.584137,232.636063 253.278427,226.755188 246.949738,220.899490 
	C248.038330,218.956711 249.126923,217.013947 250.973816,215.025909 
	C253.354523,216.353378 254.976929,217.726135 256.371216,218.905853 
	C258.857025,220.321793 261.445038,221.335693 263.464050,223.028305 
	C270.892212,229.255493 277.976715,236.144974 288.973083,232.354218 
	C286.977661,235.826370 285.018616,238.953156 283.059570,242.079926 
	C281.918427,242.679565 280.777313,243.279190 279.289978,243.876617 
z"/>
<path fill="#B5A8A2" opacity="1.000000" stroke="none" 
	d="
M289.009460,232.008835 
	C277.976715,236.144974 270.892212,229.255493 263.464050,223.028305 
	C261.445038,221.335693 258.857025,220.321793 256.371216,218.905853 
	C254.976929,217.726135 253.354523,216.353378 251.312988,214.954132 
	C251.337234,214.291306 251.780640,213.654999 252.939041,212.997375 
	C259.251404,215.634857 264.903137,218.186234 270.429962,220.984314 
	C275.408630,223.504868 280.250397,226.295761 285.976257,229.416321 
	C283.912994,225.134903 282.445801,222.090424 280.978638,219.045929 
	C282.929962,220.141266 284.881287,221.236618 286.910553,223.062561 
	C287.662170,226.531723 288.335815,229.270279 289.009460,232.008835 
z"/>
<path fill="#AF9591" opacity="1.000000" stroke="none" 
	d="
M280.780396,218.758545 
	C282.445801,222.090424 283.912994,225.134903 285.976257,229.416321 
	C280.250397,226.295761 275.408630,223.504868 270.429962,220.984314 
	C264.903137,218.186234 259.251404,215.634857 253.247025,212.940033 
	C253.421204,211.163742 254.002411,209.423477 254.737503,207.375595 
	C260.016083,209.028076 265.140808,210.988190 270.679932,213.375885 
	C271.808624,214.154053 272.522949,214.504623 273.237244,214.855194 
	C275.685547,216.060516 278.133881,217.265854 280.780396,218.758545 
z"/>
<path fill="#C7C0BE" opacity="1.000000" stroke="none" 
	d="
M288.973083,232.354218 
	C288.335815,229.270279 287.662170,226.531723 286.994690,223.397491 
	C288.242859,223.806503 289.484833,224.611176 290.875671,226.108978 
	C291.672516,229.867416 292.320435,232.932739 292.968353,235.998062 
	C291.771973,240.800934 287.889893,241.557434 283.448792,242.069031 
	C285.018616,238.953156 286.977661,235.826370 288.973083,232.354218 
z"/>
<path fill="#DCD1CF" opacity="1.000000" stroke="none" 
	d="
M293.334045,235.956589 
	C292.320435,232.932739 291.672516,229.867416 291.024719,226.393402 
	C295.917145,228.319534 297.107178,232.737625 293.334045,235.956589 
z"/>
<path fill="#B5A8A2" opacity="1.000000" stroke="none" 
	d="
M273.130676,214.554642 
	C272.522949,214.504623 271.808624,214.154053 271.025055,213.489380 
	C271.645203,213.534882 272.334656,213.894485 273.130676,214.554642 
z"/>
<path fill="#D5CCCA" opacity="1.000000" stroke="none" 
	d="
M281.175079,247.248505 
	C281.106812,246.681076 281.297302,246.419083 281.790283,246.104919 
	C282.333496,246.453171 282.657806,246.914383 283.017639,247.667999 
	C282.485474,247.804672 281.917847,247.648926 281.175079,247.248505 
z"/>
<path fill="#BBB1AE" opacity="1.000000" stroke="none" 
	d="
M176.989746,221.020599 
	C178.111206,222.962357 178.984680,225.114944 180.413452,226.795425 
	C182.448792,229.189362 182.625992,231.372910 180.174011,233.228470 
	C177.552155,235.212585 174.691895,236.920273 171.782639,238.459335 
	C171.039429,238.852509 168.846985,238.288879 168.791534,237.934555 
	C167.814499,231.693588 167.065811,225.416870 166.968811,219.072815 
	C168.111160,219.003799 168.552368,219.009872 169.166962,219.330215 
	C170.895477,220.094055 172.450607,220.543625 174.380844,220.996841 
	C175.506470,220.995102 176.256989,220.989716 177.003632,220.992828 
	C176.999771,221.001343 176.989746,221.020599 176.989746,221.020599 
z"/>
<path fill="#DCD1CF" opacity="1.000000" stroke="none" 
	d="
M181.100159,217.873688 
	C181.386276,219.026657 181.672394,220.179642 181.988739,221.694611 
	C180.587585,221.731873 179.156174,221.407104 177.357269,221.051468 
	C176.989746,221.020599 176.999771,221.001343 176.932556,220.638672 
	C175.576614,219.851395 174.287888,219.426758 172.753082,218.997925 
	C172.507004,218.993698 172.014877,218.983215 171.952194,218.635513 
	C168.922729,216.862717 165.955948,215.437622 162.989166,214.012543 
	C162.989166,214.012543 162.507050,213.990005 162.232803,213.662354 
	C161.621201,212.551788 161.283859,211.768845 160.946503,210.985916 
	C160.951233,210.553436 160.955963,210.120972 160.961487,209.364868 
	C163.857651,210.729599 166.753052,212.417953 169.939194,214.275864 
	C170.383102,213.500336 171.000854,212.421143 172.175720,211.316467 
	C174.503387,212.515854 176.273941,213.740738 178.294617,215.137573 
	C179.396545,216.164276 180.248352,217.018982 181.100159,217.873688 
z"/>
<path fill="#CFC5C3" opacity="1.000000" stroke="none" 
	d="
M163.027802,214.347626 
	C165.955948,215.437622 168.922729,216.862717 171.574310,218.642914 
	C170.503937,219.003998 169.748749,219.009964 168.993576,219.015930 
	C168.552368,219.009872 168.111160,219.003799 167.339172,218.993561 
	C165.694412,217.553818 164.380432,216.118271 163.027802,214.347626 
z"/>
<path fill="#CFC5C3" opacity="1.000000" stroke="none" 
	d="
M160.707291,211.198578 
	C161.283859,211.768845 161.621201,212.551788 161.991669,213.652924 
	C161.505890,213.117828 160.986984,212.264526 160.707291,211.198578 
z"/>
<path fill="#7F7FD8" opacity="1.000000" stroke="none" 
	d="
M287.918579,133.956406 
	C287.926025,133.230850 287.933472,132.505280 287.933472,131.418411 
	C290.187866,131.746643 292.448517,132.440140 294.711853,133.124756 
	C297.516998,133.973267 300.273529,135.172913 303.141998,135.580185 
	C308.298126,136.312195 313.725677,135.865448 318.638885,137.291992 
	C321.447815,138.107559 324.205566,141.264252 325.653503,144.057693 
	C327.487823,147.596619 327.608704,151.983551 329.133942,155.734161 
	C330.632202,159.418442 332.963745,162.763824 334.974548,166.614655 
	C330.792969,165.939941 326.589172,164.800446 322.333954,163.905273 
	C317.368439,162.860657 312.393188,161.674408 307.360138,161.175613 
	C294.845215,159.935303 294.562500,153.396576 292.900696,144.097351 
	C292.325653,140.879257 293.424896,136.506302 288.367432,135.016357 
	C287.982117,135.020615 287.993866,135.004578 287.981262,134.744049 
	C287.951935,134.307831 287.935272,134.132111 287.918579,133.956406 
z"/>
<path fill="#C78730" opacity="1.000000" stroke="none" 
	d="
M228.015869,224.995300 
	C227.578201,224.999878 227.140549,225.004471 225.919922,225.011139 
	C222.668488,225.163330 220.199707,225.308701 217.731628,225.464661 
	C214.435013,225.672958 210.973038,226.619202 207.884766,225.917099 
	C204.054749,225.046387 200.528870,221.443024 196.881470,221.457748 
	C189.558777,221.487320 187.855377,214.032745 182.157013,211.818466 
	C183.932800,211.259155 185.708588,210.699829 188.435593,209.840912 
	C179.182800,208.017960 176.774323,206.376740 175.352585,200.318451 
	C174.491791,196.650436 174.435013,192.793716 174.421509,189.015808 
	C177.846649,190.141953 181.127151,190.847183 183.834000,192.494827 
	C189.527115,195.960175 194.743912,200.216751 200.477631,203.604523 
	C208.261215,208.203430 216.192032,212.619415 224.363953,216.467804 
	C228.678497,218.499649 229.256836,221.100113 228.015869,224.995300 
z"/>
<path fill="#D59B37" opacity="1.000000" stroke="none" 
	d="
M228.384186,224.998901 
	C229.256836,221.100113 228.678497,218.499649 224.363953,216.467804 
	C216.192032,212.619415 208.261215,208.203430 200.477631,203.604523 
	C194.743912,200.216751 189.527115,195.960175 183.834000,192.494827 
	C181.127151,190.847183 177.846649,190.141953 174.328049,188.811981 
	C173.667435,188.348114 173.437424,188.168289 173.140015,188.074692 
	C173.140762,187.047104 173.141495,186.019516 173.214325,184.614014 
	C173.534821,184.015045 173.783234,183.794006 174.416275,183.299591 
	C175.190063,183.009598 175.579208,182.992981 175.968353,182.976364 
	C179.959183,184.842056 184.102448,186.441498 187.912415,188.623062 
	C199.616562,195.324768 211.144913,202.333511 222.848419,209.036392 
	C226.374054,211.055634 230.358780,212.268860 233.907135,214.255142 
	C235.263138,215.014206 235.986099,216.904114 237.014343,218.664169 
	C234.271591,221.033951 231.512054,223.018234 228.384186,224.998901 
z"/>
<path fill="#C4BAB7" opacity="1.000000" stroke="none" 
	d="
M246.706955,220.917023 
	C253.278427,226.755188 259.584137,232.636063 265.952393,238.448395 
	C267.493591,239.855042 269.241333,241.035400 270.947052,242.659302 
	C264.630432,242.659103 258.260864,242.319427 251.441788,241.596756 
	C248.945831,235.322144 243.931473,236.117645 240.043854,236.361679 
	C239.634262,233.949661 239.296814,231.962463 238.959351,229.975266 
	C239.617783,228.554977 240.276215,227.134689 240.969116,225.376007 
	C241.003586,225.037613 241.005737,225.001938 241.378067,225.001495 
	C243.160492,223.664658 244.570572,222.328247 245.980652,220.991837 
	C245.980652,220.991837 246.464157,220.934540 246.706955,220.917023 
z"/>
<path fill="#C1874A" opacity="1.000000" stroke="none" 
	d="
M172.810867,188.310257 
	C173.437424,188.168289 173.667435,188.348114 173.923553,188.817963 
	C174.435013,192.793716 174.491791,196.650436 175.352585,200.318451 
	C176.774323,206.376740 179.182800,208.017960 188.435593,209.840912 
	C185.708588,210.699829 183.932800,211.259155 182.157013,211.818466 
	C187.855377,214.032745 189.558777,221.487320 196.881470,221.457748 
	C200.528870,221.443024 204.054749,225.046387 207.884766,225.917099 
	C210.973038,226.619202 214.435013,225.672958 217.731628,225.464661 
	C220.199707,225.308701 222.668488,225.163330 225.592255,225.028290 
	C224.091949,226.038544 222.199615,227.199112 220.161606,227.979095 
	C218.379471,228.661148 216.433517,228.915131 214.301758,229.618378 
	C212.602188,229.643112 211.160812,229.407684 209.165314,228.829941 
	C206.739655,228.361328 204.868103,228.235046 202.996552,228.108765 
	C195.927216,224.734909 188.857880,221.361053 181.444336,217.930450 
	C180.248352,217.018982 179.396545,216.164276 178.246918,214.783051 
	C176.129974,210.395142 174.310852,206.533752 172.496201,202.273895 
	C172.395142,200.530243 172.289612,199.185028 172.184082,197.839828 
	C172.283295,194.741821 172.382492,191.643829 172.810867,188.310257 
z"/>
<path fill="#DCB3AA" opacity="1.000000" stroke="none" 
	d="
M245.646759,221.017670 
	C244.570572,222.328247 243.160492,223.664658 241.394592,225.002197 
	C242.463486,223.683380 243.888184,222.363434 245.646759,221.017670 
z"/>
<path fill="#6B6ACB" opacity="1.000000" stroke="none" 
	d="
M287.752258,134.059601 
	C287.935272,134.132111 287.951935,134.307831 287.974304,134.748322 
	C287.848663,134.729660 287.717316,134.446213 287.752258,134.059601 
z"/>
<path fill="#DCB3AA" opacity="1.000000" stroke="none" 
	d="
M172.491699,202.672348 
	C174.310852,206.533752 176.129974,210.395142 177.996796,214.611084 
	C176.273941,213.740738 174.503387,212.515854 172.453003,211.141479 
	C172.115936,209.606689 172.058716,208.221420 172.014053,205.998199 
	C172.181641,204.330963 172.336670,203.501663 172.491699,202.672348 
z"/>
<path fill="#DCD1CF" opacity="1.000000" stroke="none" 
	d="
M172.496185,202.273895 
	C172.336670,203.501663 172.181641,204.330963 172.004028,205.582489 
	C167.576767,204.077957 172.096405,201.028717 171.123505,198.260651 
	C171.187073,197.842987 171.684464,197.883255 171.934265,197.861542 
	C172.289612,199.185028 172.395142,200.530243 172.496185,202.273895 
z"/>
<path fill="#E5B74F" opacity="1.000000" stroke="none" 
	d="
M175.826996,182.734467 
	C175.579208,182.992981 175.190063,183.009598 174.513184,183.067261 
	C174.126373,182.789856 174.175156,182.496063 174.545654,182.080780 
	C175.041565,182.120605 175.363602,182.306595 175.826996,182.734467 
z"/>
<path fill="#C99D97" opacity="1.000000" stroke="none" 
	d="
M256.989655,311.533325 
	C256.232819,313.623779 255.477814,315.263428 254.138504,316.718933 
	C253.038559,317.124390 252.390442,317.642975 252.029877,318.315704 
	C250.309982,321.524475 248.668167,324.775116 246.748184,327.772644 
	C247.211136,325.084686 248.393204,322.655792 248.502991,320.179321 
	C248.607910,317.813477 247.596741,315.398163 247.052612,312.568115 
	C249.566345,302.703186 243.697495,298.653931 236.604263,294.689362 
	C228.626938,290.230682 219.941849,288.769836 211.256058,287.059814 
	C209.383667,286.691193 207.348709,286.723206 205.451141,286.999725 
	C201.944061,287.510803 198.483215,288.339203 194.577789,289.029633 
	C191.100815,290.022461 188.049179,291.021088 184.997803,291.600403 
	C185.005295,289.781982 185.012543,288.382904 185.019775,286.983826 
	C194.955917,281.975525 205.419434,280.916656 216.177429,283.269043 
	C222.117767,284.568024 228.156723,285.908112 233.733490,288.232056 
	C238.787155,290.338013 243.274155,293.803772 248.153564,296.756226 
	C248.889389,295.160858 249.541092,293.747833 250.498947,291.670990 
	C257.524811,296.962280 256.664459,304.230164 256.989655,311.533325 
z"/>
<path fill="#B5A8A2" opacity="1.000000" stroke="none" 
	d="
M184.758606,287.087402 
	C185.012543,288.382904 185.005295,289.781982 184.847565,291.900208 
	C180.495697,296.087646 177.590729,300.273895 179.088181,305.948761 
	C180.072601,309.679443 181.380875,313.504608 183.421921,316.732422 
	C186.179840,321.093872 189.780380,324.922546 193.013046,328.986389 
	C193.006714,328.993011 192.992950,329.007141 192.992950,329.007141 
	C185.081467,323.832611 176.023148,319.585236 174.761658,308.590179 
	C173.846924,300.617432 177.123169,294.092163 182.809586,288.244690 
	C183.505264,287.706360 184.001358,287.448700 184.758606,287.087402 
z"/>
<path fill="#B5A8A2" opacity="1.000000" stroke="none" 
	d="
M195.374268,332.001404 
	C194.445709,331.829132 193.893860,331.655853 193.170883,331.241882 
	C192.998856,330.558014 192.997955,330.114838 192.994995,329.339386 
	C192.992950,329.007141 193.006714,328.993011 193.391861,328.990540 
	C195.188354,329.989166 196.599701,330.990234 198.011047,331.991272 
	C197.257690,331.994324 196.504349,331.997345 195.374268,332.001404 
z"/>
<path fill="#C7C0BE" opacity="1.000000" stroke="none" 
	d="
M262.639130,318.060272 
	C262.235077,319.957825 261.475037,321.917297 260.358704,323.937683 
	C260.762665,322.039795 261.522919,320.081024 262.639130,318.060272 
z"/>
<path fill="#AF9591" opacity="1.000000" stroke="none" 
	d="
M198.338242,331.998383 
	C196.599701,330.990234 195.188354,329.989166 193.398193,328.983948 
	C189.780380,324.922546 186.179840,321.093872 183.421921,316.732422 
	C181.380875,313.504608 180.072601,309.679443 179.088181,305.948761 
	C177.590729,300.273895 180.495697,296.087646 184.847321,292.319519 
	C188.049179,291.021088 191.100815,290.022461 194.571381,289.387329 
	C193.216080,291.771149 191.818420,294.740784 189.592941,295.623688 
	C184.163132,297.777740 184.851425,301.829987 185.130264,306.459259 
	C185.187759,316.182495 190.306030,323.533325 199.055603,327.160797 
	C200.545517,327.778473 201.826202,328.899963 203.205368,329.785828 
	C205.337753,331.155548 207.361465,332.750061 209.625671,333.848541 
	C216.404449,337.137207 223.492401,335.974152 230.524887,334.896362 
	C236.600143,333.965240 240.473450,330.300537 241.468628,324.982758 
	C242.573792,323.622437 243.442688,322.381927 244.016663,321.017303 
	C245.124496,318.383423 246.065811,315.679474 247.076172,313.004578 
	C247.596741,315.398163 248.607910,317.813477 248.502991,320.179321 
	C248.393204,322.655792 247.211136,325.084686 246.710632,328.117828 
	C244.320755,333.494659 240.171768,336.132294 234.914536,337.015228 
	C230.296249,337.790863 225.638275,338.330353 220.997833,338.974121 
	C219.295120,338.972839 217.592422,338.971558 215.466248,338.961700 
	C213.945572,338.300293 212.848389,337.647430 211.377426,336.994873 
	C210.260696,336.988190 209.517746,336.981293 208.347641,336.654053 
	C207.264832,335.905212 206.609161,335.476715 205.953491,335.048218 
	C205.217102,335.034607 204.480713,335.021027 203.339188,334.660400 
	C201.947418,333.558167 200.960785,332.802979 199.974167,332.047791 
	C199.537918,332.033691 199.101685,332.019592 198.338242,331.998383 
z"/>
<path fill="#B5A8A2" opacity="1.000000" stroke="none" 
	d="
M221.291443,339.271851 
	C225.638275,338.330353 230.296249,337.790863 234.914536,337.015228 
	C240.171768,336.132294 244.320755,333.494659 246.961044,328.356079 
	C248.668167,324.775116 250.309982,321.524475 252.029877,318.315704 
	C252.390442,317.642975 253.038559,317.124390 253.773422,316.768250 
	C255.237167,329.728577 244.719269,341.146881 230.989868,340.013885 
	C227.863998,339.755981 224.720474,339.712067 221.291443,339.271851 
z"/>
<path fill="#B5A8A2" opacity="1.000000" stroke="none" 
	d="
M200.007385,332.362122 
	C200.960785,332.802979 201.947418,333.558167 202.971008,334.652893 
	C202.562302,334.998566 202.116608,335.004669 201.336761,335.011963 
	C200.681946,334.234283 200.361282,333.455353 200.007385,332.362122 
z"/>
<path fill="#B5A8A2" opacity="1.000000" stroke="none" 
	d="
M205.963715,335.373596 
	C206.609161,335.476715 207.264832,335.905212 207.976212,336.651215 
	C207.579895,336.978333 207.127884,336.987946 206.337006,336.999908 
	C205.990082,336.567810 205.982010,336.133392 205.963715,335.373596 
z"/>
<path fill="#C7C0BE" opacity="1.000000" stroke="none" 
	d="
M238.569778,229.979187 
	C239.296814,231.962463 239.634262,233.949661 240.043854,236.361679 
	C243.931473,236.117645 248.945831,235.322144 251.003143,241.585556 
	C250.566376,241.967514 250.118744,241.977676 249.164139,241.744934 
	C248.101501,241.341736 247.545837,241.181458 246.990158,241.021164 
	C239.901382,239.376633 232.812607,237.732101 225.346344,236.031921 
	C225.379913,235.302979 225.645569,234.232880 226.225494,234.020370 
	C230.173401,232.573654 234.187485,231.307526 238.569778,229.979187 
z"/>
<path fill="#D5CCCA" opacity="1.000000" stroke="none" 
	d="
M221.058258,236.555344 
	C218.107529,236.194580 215.123169,235.451080 212.075012,234.338898 
	C213.703705,234.010529 215.454895,233.796051 217.070877,234.168396 
	C218.468521,234.490402 219.712646,235.478790 221.058258,236.555344 
z"/>
<path fill="#D7A763" opacity="1.000000" stroke="none" 
	d="
M203.213745,228.368469 
	C204.868103,228.235046 206.739655,228.361328 208.801758,228.784058 
	C207.138519,228.929733 205.284729,228.778961 203.213745,228.368469 
z"/>
<path fill="#D5CCCA" opacity="1.000000" stroke="none" 
	d="
M246.994507,241.384216 
	C247.545837,241.181458 248.101501,241.341736 248.828415,241.742615 
	C248.817963,242.832748 248.636276,243.682266 248.454575,244.531784 
	C248.193604,244.548340 247.932632,244.564896 247.671646,244.581451 
	C247.447388,243.636719 247.223129,242.691986 246.994507,241.384216 
z"/>
<path fill="#C4BAB7" opacity="1.000000" stroke="none" 
	d="
M169.166962,219.330200 
	C169.748749,219.009964 170.503937,219.003998 171.636993,218.990631 
	C172.014877,218.983215 172.507004,218.993698 172.862122,219.255310 
	C173.480057,220.009018 173.742889,220.501114 174.005737,220.993195 
	C172.450607,220.543625 170.895477,220.094055 169.166962,219.330200 
z"/>
<path fill="#CFC5C3" opacity="1.000000" stroke="none" 
	d="
M174.380844,220.996841 
	C173.742889,220.501114 173.480057,220.009018 173.108185,219.259537 
	C174.287888,219.426758 175.576614,219.851395 176.936432,220.630157 
	C176.256989,220.989716 175.506470,220.995102 174.380844,220.996841 
z"/>
<path fill="#CD7F72" opacity="1.000000" stroke="none" 
	d="
M185.162521,306.037048 
	C184.851425,301.829987 184.163132,297.777740 189.592941,295.623688 
	C191.818420,294.740784 193.216080,291.771149 194.996719,289.393066 
	C198.483215,288.339203 201.944061,287.510803 205.451141,286.999725 
	C207.348709,286.723206 209.383667,286.691193 211.256058,287.059814 
	C219.941849,288.769836 228.626938,290.230682 236.604263,294.689362 
	C243.697495,298.653931 249.566345,302.703186 247.052612,312.568115 
	C246.065811,315.679474 245.124496,318.383423 244.016663,321.017303 
	C243.442688,322.381927 242.573792,323.622437 241.437195,324.519318 
	C240.973373,312.351501 236.715027,305.846527 227.691223,303.362305 
	C223.629364,302.244080 219.724869,299.970367 215.641373,299.666382 
	C210.840256,299.309021 205.750320,295.756073 200.755615,299.987000 
	C200.321014,299.994049 200.147339,300.000732 199.554108,299.993835 
	C193.863251,299.010620 189.001572,298.915710 186.934219,305.342224 
	C186.811310,305.724243 185.774216,305.812225 185.162521,306.037048 
z"/>
<path fill="#A2635C" opacity="1.000000" stroke="none" 
	d="
M201.016556,299.986633 
	C205.750320,295.756073 210.840256,299.309021 215.641373,299.666382 
	C219.724869,299.970367 223.629364,302.244080 227.691223,303.362305 
	C236.715027,305.846527 240.973373,312.351501 241.067657,324.583038 
	C240.473450,330.300537 236.600143,333.965240 230.524887,334.896362 
	C223.492401,335.974152 216.404449,337.137207 209.625671,333.848541 
	C207.361465,332.750061 205.337753,331.155548 203.205368,329.785828 
	C201.826202,328.899963 200.545517,327.778473 199.055603,327.160797 
	C190.306030,323.533325 185.187759,316.182495 185.130264,306.459259 
	C185.774216,305.812225 186.811310,305.724243 186.934219,305.342224 
	C189.001572,298.915710 193.863251,299.010620 199.420929,300.315613 
	C198.472244,303.765808 197.237152,306.880707 195.736725,310.223572 
	C195.452118,311.236023 195.271179,312.056793 195.437790,312.799652 
	C198.052551,324.458313 215.249802,336.145142 229.384262,328.998535 
	C233.972015,327.933716 236.758728,323.406067 237.023819,317.558380 
	C237.200623,313.658813 236.191055,311.013885 231.937347,309.760925 
	C221.570221,306.707214 211.316147,303.269623 201.016556,299.986633 
z"/>
<path fill="#AB5146" opacity="1.000000" stroke="none" 
	d="
M196.002075,309.995636 
	C197.237152,306.880707 198.472244,303.765808 199.840500,300.329163 
	C200.147339,300.000732 200.321014,299.994049 200.755615,299.987000 
	C211.316147,303.269623 221.570221,306.707214 231.937347,309.760925 
	C236.191055,311.013885 237.200623,313.658813 237.023819,317.558380 
	C236.758728,323.406067 233.972015,327.933716 229.427734,328.623535 
	C230.442368,325.299042 230.154434,323.021088 227.149841,321.006439 
	C217.681915,314.657837 207.796753,309.678925 196.002075,309.995636 
z"/>
<path fill="#9E4C42" opacity="1.000000" stroke="none" 
	d="
M195.736725,310.223572 
	C207.796753,309.678925 217.681915,314.657837 227.149841,321.006439 
	C230.154434,323.021088 230.442368,325.299042 229.043488,328.622559 
	C215.249802,336.145142 198.052551,324.458313 195.437790,312.799652 
	C195.271179,312.056793 195.452118,311.236023 195.736725,310.223572 
z"/>
</svg>